<?xml version="1.0" encoding="UTF-8"?><svg id="uuid-4f6a8a41-18e3-4f77-b5a9-4b1b38aa2dc9" xmlns="http://www.w3.org/2000/svg" viewBox="0 0 899.655 494.3094"><path id="uuid-a155c1ca-d868-4653-8477-8dd87240a765" d="M327.3849,435.128l-299.9999-.2497c-16.2735,1.1937-28.4981,15.3538-27.3044,31.6273,1.0719,14.6128,12.6916,26.2325,27.3044,27.3044l299.9999,.2497c16.2735-1.1937,28.4981-15.3538,27.3044-31.6273-1.0718-14.6128-12.6916-26.2325-27.3044-27.3044Z" style="fill:#a7aaad"/><path id="uuid-e30ba4c6-4769-466b-a03a-e644c5198e56" d="M27.3849,58.9317l299.9999,.2497c16.2735-1.1937,28.4981-15.3537,27.3044-31.6273-1.0718-14.6128-12.6916-26.2325-27.3044-27.3044L27.3849,0C11.1114,1.1937-1.1132,15.3537,.0805,31.6273c1.0719,14.6128,12.6916,26.2325,27.3044,27.3044Z" style="fill:#a7aaad"/><path id="uuid-2bbd52d6-aec1-4689-9d4c-23c35d4f22b8" d="M652.485,.2849c-124.9388,.064-230.1554,93.4132-245.1001,217.455H27.3849c-16.2735,1.1937-28.4981,15.3537-27.3044,31.6272,1.0719,14.6128,12.6916,26.2325,27.3044,27.3044H407.3849c16.2298,135.4454,139.187,232.0888,274.6323,215.8589,135.4455-16.2298,232.0888-139.1869,215.8589-274.6324C882.9921,93.6834,777.5884,.2112,652.485,.2849Zm0,433.4217c-102.9754,0-186.4533-83.478-186.4533-186.4533,0-102.9753,83.4781-186.4533,186.4533-186.4533,102.9754,0,186.4533,83.478,186.4533,186.4533,.0524,102.9753-83.383,186.4959-186.3583,186.5483-.0316,0-.0634,0-.0951,0v-.095Z" style="fill:#a7aaad"/></svg>