<?xml version="1.0" encoding="UTF-8"?>
<svg version="1.1" xmlns="http://www.w3.org/2000/svg" width="350" height="150">
<path d="M0 0 C3 1.5 3 1.5 5 3 C5.5561499 2.26873901 5.5561499 2.26873901 6.12353516 1.52270508 C8.77277806 -0.62709039 10.64200039 -0.37258334 14.0234375 -0.36328125 C15.80234375 -0.36231445 15.80234375 -0.36231445 17.6171875 -0.36132812 C19.47730469 -0.3371582 19.47730469 -0.3371582 21.375 -0.3125 C22.60734375 -0.31572266 23.8396875 -0.31894531 25.109375 -0.32226562 C37.39965095 -0.24895053 37.39965095 -0.24895053 42.3125 4 C44 6 44 6 44 8 C44.66 8 45.32 8 46 8 C46.309375 7.13375 46.309375 7.13375 46.625 6.25 C48.63404966 2.96246419 50.53930597 1.69888616 54 0 C57.85239474 -0.10359381 61.53237662 0.26618831 65 2 C66.051875 1.505 66.051875 1.505 67.125 1 C70.99052658 -0.34453098 74.10197904 -0.25209158 78 1 C80.9375 3.5 80.9375 3.5 83 6 C83.495 6.495 83.495 6.495 84 7 C84.66 6.01 85.32 5.02 86 4 C86.66 4 87.32 4 88 4 C88 3.34 88 2.68 88 2 C92.45731138 -0.36794667 96.23843274 -0.37279056 101 1 C104 3.0625 104 3.0625 106 5 C106.33 3.68 106.66 2.36 107 1 C112.625 -0.125 112.625 -0.125 116 1 C118 4 118 4 118 7 C118.66 7 119.32 7 120 7 C120.99 7.99 120.99 7.99 122 9 C121.773125 8.071875 121.54625 7.14375 121.3125 6.1875 C121 3 121 3 122.0625 1.0625 C124 0 124 0 130 1 C130 12.55 130 24.1 130 36 C125 37 125 37 122.8125 35.625 C120.67504208 32.52937129 120.1587033 29.99162246 119.58984375 26.31640625 C118.87413503 23.50570908 117.57434932 21.41912213 116 19 C115.92652344 20.69769531 115.92652344 20.69769531 115.8515625 22.4296875 C115.77653486 23.91148339 115.70098703 25.393253 115.625 26.875 C115.5940625 27.62136719 115.563125 28.36773437 115.53125 29.13671875 C115.2265625 34.7734375 115.2265625 34.7734375 113 37 C110.99453311 36.70131344 108.99422795 36.36628677 107 36 C105.515 36.495 105.515 36.495 104 37 C101.75419972 36.59167268 100.04425902 36.02212951 98 35 C98 33.02 98 31.04 98 29 C96.35 29.33 94.7 29.66 93 30 C92.731875 30.969375 92.46375 31.93875 92.1875 32.9375 C91.5996875 34.4534375 91.5996875 34.4534375 91 36 C88.05770079 36.9807664 86.0091216 37.16488128 82.9375 37.1875 C82.05964844 37.20167969 81.18179688 37.21585938 80.27734375 37.23046875 C78 37 78 37 76 35 C75.88041793 31.31537733 75.95681121 27.68577963 76.078125 24.00390625 C76.18513317 18.6267456 75.51374619 14.16802411 74 9 C73.01 9 72.02 9 71 9 C70.67 9.66 70.34 10.32 70 11 C69.34 11 68.68 11 68 11 C68.10828125 11.96486328 68.10828125 11.96486328 68.21875 12.94921875 C68.97577262 20.31967507 69.10595877 27.59465929 69 35 C65.28125 37.046875 65.28125 37.046875 62.75 36.625 C62.1725 36.41875 61.595 36.2125 61 36 C60.22471521 32.57426063 59.88081222 29.42760755 59.90234375 25.91796875 C59.90717773 24.52094727 59.90717773 24.52094727 59.91210938 23.09570312 C59.92467773 21.65614258 59.92467773 21.65614258 59.9375 20.1875 C59.94201172 19.20845703 59.94652344 18.22941406 59.95117188 17.22070312 C59.96291316 14.81373889 59.97933581 12.40690143 60 10 C58.02 9.67 56.04 9.34 54 9 C54.00523682 9.74685059 54.01047363 10.49370117 54.01586914 11.26318359 C54.03660401 14.63378057 54.04964899 18.00436414 54.0625 21.375 C54.07087891 22.550625 54.07925781 23.72625 54.08789062 24.9375 C54.09111328 26.05898437 54.09433594 27.18046875 54.09765625 28.3359375 C54.10289307 29.37282715 54.10812988 30.4097168 54.11352539 31.47802734 C54 34 54 34 53 36 C48.05122578 37.05390562 42.88947792 37.46684337 38 36 C38 35.34 38 34.68 38 34 C36.35 33.67 34.7 33.34 33 33 C32.67 33.99 32.34 34.98 32 36 C27.36311665 36.90446066 22.8620098 37.16044994 18.15234375 37.16796875 C17.05086754 37.17296135 17.05086754 37.17296135 15.92713928 37.17805481 C14.38331728 37.18309183 12.83948451 37.18546414 11.2956543 37.18530273 C8.94106158 37.18749668 6.58693237 37.20570652 4.23242188 37.22460938 C2.72656409 37.22754255 1.2207041 37.22952785 -0.28515625 37.23046875 C-0.98423599 37.23765427 -1.68331573 37.24483978 -2.40357971 37.25224304 C-7.20011302 37.22991625 -10.92558254 36.64829559 -14.73046875 33.625 C-19.61217972 28.18051806 -21.19960511 22.65286396 -20.88671875 15.359375 C-20.66248779 13.23085426 -20.34080504 11.11299124 -20 9 C-19.34 9 -18.68 9 -18 9 C-17.95875 8.4225 -17.9175 7.845 -17.875 7.25 C-16.54500609 3.83001567 -14.09911668 2.79748768 -11 1 C-7.29661796 -0.23446068 -3.85339582 -0.44981274 0 0 Z M122 3 C123 5 123 5 123 5 Z M5 4 C6 6 6 6 6 6 Z M4 6 C3.01 7.485 3.01 7.485 2 9 C-0.125 9.6875 -0.125 9.6875 -2 10 C-2.33 9.34 -2.66 8.68 -3 8 C-5.87413125 7.66602213 -5.87413125 7.66602213 -9 8 C-12.05414246 11.04688797 -12.52725531 13.78491287 -12.875 18 C-12.97554687 19.03125 -13.07609375 20.0625 -13.1796875 21.125 C-12.97160516 24.45431744 -12.36387043 25.6848134 -10 28 C-6.89802603 28.80946422 -6.89802603 28.80946422 -4 29 C-3.34 28.01 -2.68 27.02 -2 26 C-3.32 25.34 -4.64 24.68 -6 24 C-6 21.69 -6 19.38 -6 17 C-2.37 17 1.26 17 5 17 C5 13.37 5 9.74 5 6 C4.67 6 4.34 6 4 6 Z M34 8 C31.67409146 11.63423209 31.83734167 14.77088331 32 19 C32.99 19.33 33.98 19.66 35 20 C36.72780266 19.02977977 36.72780266 19.02977977 38 17 C37.96726452 14.23385218 37.49404328 11.73969453 37 9 C36.01 8.67 35.02 8.34 34 8 Z M18.375 8.5 C17.14910156 8.63921875 17.14910156 8.63921875 15.8984375 8.78125 C15.27195313 8.8534375 14.64546875 8.925625 14 9 C14 10.65 14 12.3 14 14 C16.64 14.33 19.28 14.66 22 15 C22.33 16.98 22.66 18.96 23 21 C20.94921875 21.22786458 18.8984375 21.45572917 16.84765625 21.68359375 C14.98859771 21.81886614 14.98859771 21.81886614 14 23 C13.95919217 24.99958364 13.95745644 27.00045254 14 29 C15.45792884 29.05399736 16.91642712 29.09279177 18.375 29.125 C19.18710938 29.14820312 19.99921875 29.17140625 20.8359375 29.1953125 C23.21342243 29.21370051 23.21342243 29.21370051 25 27 C25.27686065 24.96532566 25.27686065 24.96532566 25.1953125 22.6484375 C25.18886719 21.79765625 25.18242188 20.946875 25.17578125 20.0703125 C25.15902344 19.18085937 25.14226562 18.29140625 25.125 17.375 C25.11597656 16.4778125 25.10695313 15.580625 25.09765625 14.65625 C25.0740497 12.43723414 25.0411231 10.21874923 25 8 C22.75625048 8 20.60431457 8.24522119 18.375 8.5 Z M94.4375 8.6875 C91.88386945 9.71973218 91.88386945 9.71973218 91.3203125 11.78515625 C90.9648901 14.24277211 91.11209219 16.29136318 91.4375 18.75 C91.53933594 19.54921875 91.64117187 20.3484375 91.74609375 21.171875 C91.82988281 21.77515625 91.91367188 22.3784375 92 23 C94.31 23 96.62 23 99 23 C99 18.38 99 13.76 99 9 C96.96444412 7.70567636 96.96444412 7.70567636 94.4375 8.6875 Z M44 20 C43.5978125 21.2065625 43.5978125 21.2065625 43.1875 22.4375 C42.5996875 23.7059375 42.5996875 23.7059375 42 25 C41.01 25.33 40.02 25.66 39 26 C41.475 27.485 41.475 27.485 44 29 C45.20561184 28.01732141 45.20561184 28.01732141 45.09765625 26.15234375 C45.08605469 25.42144531 45.07445313 24.69054687 45.0625 23.9375 C45.041875 22.638125 45.02125 21.33875 45 20 C44.67 20 44.34 20 44 20 Z " fill="#A0783A" transform="translate(54,54)"/>
<path d="M0 0 C4.98748002 0.4749981 8.06964437 1.89227695 12 5 C12.495 6.485 12.495 6.485 13 8 C13.99 8.495 13.99 8.495 15 9 C16.5818228 11.33110728 17.04756724 12.5481112 16.75 15.375 C15.91909864 18.28315476 14.99616152 21.14433697 14 24 C13.34 24 12.68 24 12 24 C11.690625 24.61875 11.38125 25.2375 11.0625 25.875 C9.12571197 29.74857605 7.83129679 30.82312682 4 33 C3.236875 33.474375 2.47375 33.94875 1.6875 34.4375 C-7.7075057 39.89971262 -17.59048357 44.10468167 -28 47.1875 C-28.83789062 47.44724609 -29.67578125 47.70699219 -30.5390625 47.97460938 C-36.0260956 49.61817115 -41.29629976 50.54579262 -47 51 C-52.96227039 51.60885434 -52.96227039 51.60885434 -58.875 52.5625 C-67.15454142 53.7216358 -74.92124678 52.98882719 -83 51 C-84.06154297 50.76603516 -84.06154297 50.76603516 -85.14453125 50.52734375 C-87.0625 50.0625 -87.0625 50.0625 -90 49 C-90.495 47.515 -90.495 47.515 -91 46 C-93.01508358 45.26676204 -93.01508358 45.26676204 -95 45 C-95 44.34 -95 43.68 -95 43 C-95.66 43 -96.32 43 -97 43 C-98.42949408 34.13024758 -98.42949408 34.13024758 -96.8125 29.875 C-96.214375 29.25625 -95.61625 28.6375 -95 28 C-93.68 28 -92.36 28 -91 28 C-91.061875 28.928125 -91.12375 29.85625 -91.1875 30.8125 C-91.30149979 33.92221487 -91.30149979 33.92221487 -89.7421875 35.65625 C-84.55214518 39.65933197 -75.00143347 38.09254253 -68.6875 38.125 C-67.52238892 38.13213013 -67.52238892 38.13213013 -66.33374023 38.1394043 C-62.40178746 38.12793345 -58.84953886 37.87282269 -55 37 C-52.17667321 36.71529478 -49.35267833 36.49828765 -46.5234375 36.28125 C-43.87765812 36.07543983 -43.87765812 36.07543983 -41 35 C-39.71125459 34.6207558 -38.42071697 34.24757405 -37.12890625 33.87890625 C-36.38962891 33.66556641 -35.65035156 33.45222656 -34.88867188 33.23242188 C-33.34253438 32.78714466 -31.79565952 32.34441963 -30.24804688 31.90429688 C-26.62149581 30.85325988 -23.37164018 29.71371782 -20 28 C-19.01 28 -18.02 28 -17 28 C-17 27.34 -17 26.68 -17 26 C-15.96875 25.5875 -14.9375 25.175 -13.875 24.75 C-7.29368359 21.88970957 -1.96365505 18.04763863 2 12 C2.75191978 9.36891496 2.75191978 9.36891496 2 7 C1.01268258 5.65724831 0.01405257 4.32267727 -1 3 C-0.67 2.01 -0.34 1.02 0 0 Z " fill="#A67834" transform="translate(298,52)"/>
<path d="M0 0 C-0.67692308 8.12307692 -0.67692308 8.12307692 -4 12 C-4.13535156 12.61101562 -4.27070313 13.22203125 -4.41015625 13.8515625 C-5.12283743 16.44742109 -6.28985385 18.00602231 -7.9375 20.125 C-8.46214844 20.80820313 -8.98679687 21.49140625 -9.52734375 22.1953125 C-11 24 -11 24 -13 26 C-13.99 26 -14.98 26 -16 26 C-16.33 27.32 -16.66 28.64 -17 30 C-18.65 30.33 -20.3 30.66 -22 31 C-22 31.66 -22 32.32 -22 33 C-23.26607607 33.53229326 -24.53810412 34.05044544 -25.8125 34.5625 C-26.52019531 34.85253906 -27.22789062 35.14257812 -27.95703125 35.44140625 C-30 36 -30 36 -33 35 C-33 35.66 -33 36.32 -33 37 C-33.78375 36.814375 -34.5675 36.62875 -35.375 36.4375 C-37.97089775 35.74037734 -37.97089775 35.74037734 -40 37 C-40.804375 36.835 -41.60875 36.67 -42.4375 36.5 C-45.76329117 36.03322229 -48.19732772 36.17157144 -51.5 36.5625 C-55.99073906 37.01519547 -58.82504703 36.91352011 -63 35 C-63.91394531 34.63390625 -64.82789063 34.2678125 -65.76953125 33.890625 C-71.67191619 31.43571779 -71.67191619 31.43571779 -74 30 C-74.82421875 27.8359375 -74.82421875 27.8359375 -75 26 C-76.32 25.67 -77.64 25.34 -79 25 C-79 24.34 -79 23.68 -79 23 C-79.66 23 -80.32 23 -81 23 C-81 22.34 -81 21.68 -81 21 C-81.99 20.67 -82.98 20.34 -84 20 C-84.33 18.35 -84.66 16.7 -85 15 C-84.34 15 -83.68 15 -83 15 C-82.67 14.34 -82.34 13.68 -82 13 C-76.25 14.875 -76.25 14.875 -74 16 C-72.01743902 15.91156922 -70.03753569 15.75641259 -68.0625 15.5625 C-65.01453661 15.26992514 -62.06262472 15 -59 15 C-58.236875 14.835 -57.47375 14.67 -56.6875 14.5 C-53.64263045 13.93351264 -51.08751772 13.66440025 -48 14 C-46.125 16 -46.125 16 -45 18 C-44.67 16.68 -44.34 15.36 -44 14 C-42.04310341 13.77857745 -40.08438048 13.5732432 -38.125 13.375 C-36.48917969 13.20097656 -36.48917969 13.20097656 -34.8203125 13.0234375 C-33.88960938 13.01570313 -32.95890625 13.00796875 -32 13 C-31.34 13.66 -30.68 14.32 -30 15 C-29.34 14.34 -28.68 13.68 -28 13 C-24.375 12.875 -24.375 12.875 -21 13 C-22.98 12.67 -24.96 12.34 -27 12 C-26.67 10.68 -26.34 9.36 -26 8 C-24.948125 7.814375 -24.948125 7.814375 -23.875 7.625 C-20.92669919 7.04098711 -20.92669919 7.04098711 -17.875 5.9375 C-15 5 -15 5 -12 5 C-11.67 4.34 -11.34 3.68 -11 3 C-9.2578125 1.89453125 -9.2578125 1.89453125 -7.125 0.8125 C-6.07699219 0.26529297 -6.07699219 0.26529297 -5.0078125 -0.29296875 C-3 -1 -3 -1 0 0 Z M-19 13 C-18.01 13 -17.02 13 -16 13 C-15.67 13.99 -15.34 14.98 -15 16 C-14.34 14.35 -13.68 12.7 -13 11 C-16.18490007 10.7226499 -16.18490007 10.7226499 -19 13 Z M-45 21 C-44 23 -44 23 -44 23 Z M-34 26 C-33 28 -33 28 -33 28 Z M-58 26 C-58.66 26.66 -59.32 27.32 -60 28 C-58.68 27.67 -57.36 27.34 -56 27 C-56.66 26.67 -57.32 26.34 -58 26 Z M-46 26 C-48.60280568 26.32041397 -48.60280568 26.32041397 -51 27 C-51 27.33 -51 27.66 -51 28 C-48.69 28 -46.38 28 -44 28 C-44.66 27.34 -45.32 26.68 -46 26 Z M-43 27 C-43 27.33 -43 27.66 -43 28 C-41.02 28 -39.04 28 -37 28 C-37 27.67 -37 27.34 -37 27 C-38.98 27 -40.96 27 -43 27 Z " fill="#675E50" transform="translate(299,91)"/>
<path d="M0 0 C0.99 0 1.98 0 3 0 C3.33 -0.33 3.66 -0.66 4 -1 C5.66617115 -1.04063832 7.33388095 -1.042721 9 -1 C10.44207941 1.88415883 10.09394887 4.41721528 10.0625 7.625 C10.05347656 8.81351563 10.04445312 10.00203125 10.03515625 11.2265625 C10.02355469 12.14179687 10.01195312 13.05703125 10 14 C10.99 14.33 11.98 14.66 13 15 C13 9.72 13 4.44 13 -1 C18 -2 18 -2 21 -1 C22.84610532 -0.91760831 24.69505164 -0.89256641 26.54296875 -0.90234375 C28.15268555 -0.90717773 28.15268555 -0.90717773 29.79492188 -0.91210938 C30.91447266 -0.92048828 32.03402344 -0.92886719 33.1875 -0.9375 C34.31865234 -0.94201172 35.44980469 -0.94652344 36.61523438 -0.95117188 C39.41020927 -0.96296502 42.2050782 -0.9794235 45 -1 C44.69140625 0.921875 44.69140625 0.921875 44 3 C40.9375 4.25 40.9375 4.25 38 5 C38 5.66 38 6.32 38 7 C39.65 7.33 41.3 7.66 43 8 C43.495 9.98 43.495 9.98 44 12 C42.68 12.99 41.36 13.98 40 15 C40.639375 15.268125 41.27875 15.53625 41.9375 15.8125 C44 17 44 17 45 20 C43.91015625 21.5234375 43.91015625 21.5234375 42 23 C38.93359375 23.0390625 38.93359375 23.0390625 35.4375 22.625 C31.0699891 21.89997835 31.0699891 21.89997835 27 23 C22.98329243 23.26195919 20.48629986 22.99217135 17 21 C16.34 21 15.68 21 15 21 C14.67 21.66 14.34 22.32 14 23 C10.06225823 23.36630156 8.43460229 23.30233203 5.125 21 C4.42375 20.34 3.7225 19.68 3 19 C2.154375 19.66 1.30875 20.32 0.4375 21 C-3.5150573 23.2996697 -5.50452934 23.66599565 -10 23 C-12.4375 21 -12.4375 21 -14 19 C-14.33 19.99 -14.66 20.98 -15 22 C-16.65 22.33 -18.3 22.66 -20 23 C-21.41377341 20.36095629 -22.37240135 17.92879371 -23 15 C-23.66 15 -24.32 15 -25 15 C-24.979375 15.969375 -24.95875 16.93875 -24.9375 17.9375 C-25 21 -25 21 -26 22 C-28.5 22.125 -28.5 22.125 -31 22 C-32 21 -32 21 -32.11352539 18.86694336 C-32.10828857 17.95050049 -32.10305176 17.03405762 -32.09765625 16.08984375 C-32.09443359 15.10048828 -32.09121094 14.11113281 -32.08789062 13.09179688 C-32.07951172 12.05087891 -32.07113281 11.00996094 -32.0625 9.9375 C-32.05798828 8.89271484 -32.05347656 7.84792969 -32.04882812 6.77148438 C-32.03699913 4.1809334 -32.02051689 1.59049441 -32 -1 C-29.69 -1 -27.38 -1 -25 -1 C-25 1.31 -25 3.62 -25 6 C-24.01 5.67 -23.02 5.34 -22 5 C-22.020625 4.195625 -22.04125 3.39125 -22.0625 2.5625 C-22 0 -22 0 -21 -1 C-19.00041636 -1.04080783 -16.99954746 -1.04254356 -15 -1 C-15 -0.01 -15 0.98 -15 2 C-14.443125 1.525625 -13.88625 1.05125 -13.3125 0.5625 C-8.44338681 -2.72744134 -5.32079128 -1.96637939 0 0 Z M27.4375 4.5 C26.963125 4.995 26.48875 5.49 26 6 C26.99 7.485 26.99 7.485 28 9 C28.66 9 29.32 9 30 9 C30 7.02 30 5.04 30 3 C28.75923698 2.88457803 28.75923698 2.88457803 27.4375 4.5 Z M-9.875 6.1875 C-11.17739576 9.44348939 -11.28089828 10.7550577 -10 14 C-8.2322188 15.95158486 -8.2322188 15.95158486 -6 17 C-2.98166743 16.31283015 -2.98166743 16.31283015 -1.75 14.3125 C-0.56220598 10.65013509 -1.29954304 7.40091392 -3 4 C-6.48365786 3.52923542 -7.52051342 3.44059899 -9.875 6.1875 Z M20 10 C20 11.98 20 13.96 20 16 C21.98 16 23.96 16 26 16 C25.88693303 14.04105639 25.88693303 14.04105639 25 12 C22.50965614 10.70339566 22.50965614 10.70339566 20 10 Z " fill="#B69155" transform="translate(142,99)"/>
<path d="M0 0 C0 0.66 0 1.32 0 2 C0.99 2 1.98 2 3 2 C3 1.34 3 0.68 3 0 C5.54439574 -1.27219787 7.28526614 -1.06328098 10.125 -1 C13.63243601 -0.94505322 16.81166793 -1.07581724 20.25 -1.75 C25.18906708 -2.07927114 26.9883871 -0.75798387 31 2 C31 1.01 31 0.02 31 -1 C35.29 -1 39.58 -1 44 -1 C44.495 0.98 44.495 0.98 45 3 C44 4 44 4 40.4375 4.0625 C39.303125 4.041875 38.16875 4.02125 37 4 C37.495 5.485 37.495 5.485 38 7 C39.175625 7.1546875 39.175625 7.1546875 40.375 7.3125 C43 8 43 8 45 11 C43 14 43 14 40.4375 14.5625 C39.633125 14.706875 38.82875 14.85125 38 15 C37.67 15.66 37.34 16.32 37 17 C38.423125 16.690625 38.423125 16.690625 39.875 16.375 C41.421875 16.189375 41.421875 16.189375 43 16 C45 18 45 18 45 22 C40.71 22.33 36.42 22.66 32 23 C31.505 21.02 31.505 21.02 31 19 C30.113125 19.680625 29.22625 20.36125 28.3125 21.0625 C22.91160124 24.24278129 16.9431344 22.82220807 11 22 C11 21.01 11 20.02 11 19 C10.01 19 9.02 19 8 19 C8 19.99 8 20.98 8 22 C3.65104888 22.9319181 0.34782197 22.88932722 -4 22 C-6.0745356 21.8509288 -6.0745356 21.8509288 -8 23 C-9.65 22.34 -11.3 21.68 -13 21 C-13 15.39 -13 9.78 -13 4 C-13.66 4 -14.32 4 -15 4 C-15 9.94 -15 15.88 -15 22 C-16.65 22.33 -18.3 22.66 -20 23 C-22.23187941 20.76812059 -21.24863754 14.45065226 -21.25390625 11.2578125 C-21.32527952 9.06402366 -21.42678899 7.120424 -22 5 C-24.43672744 3.10548909 -24.43672744 3.10548909 -27 2 C-27 1.01 -27 0.02 -27 -1 C-23.25085209 -1.22616462 -19.50077551 -1.42782662 -15.75 -1.625 C-14.68652344 -1.68945312 -13.62304688 -1.75390625 -12.52734375 -1.8203125 C-11.50253906 -1.871875 -10.47773437 -1.9234375 -9.421875 -1.9765625 C-8.47924805 -2.02893066 -7.53662109 -2.08129883 -6.56542969 -2.13525391 C-3.85052215 -1.99211927 -2.30740658 -1.3910908 0 0 Z M-6 5 C-6 6.65 -6 8.3 -6 10 C-5.01 9.01 -4.02 8.02 -3 7 C-3.33 6.34 -3.66 5.68 -4 5 C-4.66 5 -5.32 5 -6 5 Z M7 6 C6.74969023 8.58380177 6.74969023 8.58380177 7 11 C7.99 11 8.98 11 10 11 C10.33 8.69 10.66 6.38 11 4 C9.53774984 3.90754997 9.53774984 3.90754997 7 6 Z M23 5 C23 8.63 23 12.26 23 16 C23.99 15.67 24.98 15.34 26 15 C27.05236973 11.65155086 27.20005388 10.40920111 25.625 7.1875 C25.08875 6.465625 24.5525 5.74375 24 5 C23.67 5 23.34 5 23 5 Z M-1 14 C-0.67 14.99 -0.34 15.98 0 17 C0 16.01 0 15.02 0 14 C-0.33 14 -0.66 14 -1 14 Z " fill="#8F682F" transform="translate(61,99)"/>
<path d="M0 0 C1.38638672 -0.0309375 1.38638672 -0.0309375 2.80078125 -0.0625 C3.68894531 -0.06765625 4.57710938 -0.0728125 5.4921875 -0.078125 C6.30800293 -0.0874707 7.12381836 -0.09681641 7.96435547 -0.10644531 C10.69272549 0.34365867 11.4132848 1.11247445 13.125 3.25 C13.53286743 5.20283508 13.53286743 5.20283508 13.57666016 7.44262695 C13.5990274 8.28392654 13.62139465 9.12522614 13.6444397 9.99201965 C13.65091522 10.89828598 13.65739075 11.80455231 13.6640625 12.73828125 C13.67641937 13.6742363 13.68877625 14.61019135 13.70150757 15.57450867 C13.72108148 17.55571232 13.73230726 19.53701335 13.73583984 21.51831055 C13.74990402 24.54186549 13.8171969 27.56126327 13.88671875 30.58398438 C13.89912028 32.51039831 13.90833829 34.4368359 13.9140625 36.36328125 C13.95413925 37.7135717 13.95413925 37.7135717 13.99502563 39.09114075 C13.92890412 45.23611318 13.92890412 45.23611318 11.63366699 48.13087463 C7.91833454 51.39587028 3.91502286 53.58556516 -0.625 55.5625 C-1.73359375 56.05363281 -2.8421875 56.54476562 -3.984375 57.05078125 C-6.875 58.25 -6.875 58.25 -9.875 59.25 C-11.80457304 57.6446607 -12.78351344 56.75826255 -13.23576355 54.2457428 C-13.22910172 53.48281418 -13.22243988 52.71988556 -13.21557617 51.93383789 C-13.21534958 51.06606216 -13.21512299 50.19828644 -13.21488953 49.30421448 C-13.19940567 48.36980026 -13.18392181 47.43538605 -13.16796875 46.47265625 C-13.16372391 45.50976181 -13.15947906 44.54686737 -13.15510559 43.55479431 C-13.13830506 40.4737461 -13.10068343 37.39335026 -13.0625 34.3125 C-13.04745199 32.24024391 -13.03376379 30.16797747 -13.02148438 28.09570312 C-12.99198253 23.52402756 -12.94934995 18.95268826 -12.89518738 14.38124084 C-12.87582952 12.3375745 -12.875 10.29375803 -12.875 8.25 C-10.55429216 -0.8781175 -8.77600291 0.04855327 0 0 Z M4.125 11.25 C5.125 13.25 5.125 13.25 5.125 13.25 Z M5.125 13.25 C4.795 14.24 4.465 15.23 4.125 16.25 C4.785 16.91 5.445 17.57 6.125 18.25 C6.125 16.6 6.125 14.95 6.125 13.25 C5.795 13.25 5.465 13.25 5.125 13.25 Z " fill="#2B2B28" transform="translate(280.875,21.75)"/>
<path d="M0 0 C7.59 0 15.18 0 23 0 C24.12699078 7.88893546 24.12699078 7.88893546 24.1328125 11.8984375 C24.13571289 13.22464111 24.13571289 13.22464111 24.13867188 14.57763672 C24.13416016 15.5007666 24.12964844 16.42389648 24.125 17.375 C24.12306641 18.33293457 24.12113281 19.29086914 24.11914062 20.27783203 C24.06774867 28.87599084 23.63670341 37.4272434 23 46 C20.525 46.495 20.525 46.495 18 47 C18 47.66 18 48.32 18 49 C16.906875 49.144375 15.81375 49.28875 14.6875 49.4375 C11.06877013 49.88288104 11.06877013 49.88288104 8 51 C4.4375 51.25 4.4375 51.25 1 51 C-1.09373392 47.85939912 -1.24941839 47.15009922 -1.24291992 43.57617188 C-1.24599655 42.68514771 -1.24907318 41.79412354 -1.25224304 40.87609863 C-1.24505753 39.91667358 -1.23787201 38.95724854 -1.23046875 37.96875 C-1.22978142 36.48755676 -1.22978142 36.48755676 -1.2290802 34.97644043 C-1.22605883 32.88841551 -1.21817597 30.80039283 -1.20581055 28.71240234 C-1.1875719 25.51261426 -1.18530077 22.31311586 -1.18554688 19.11328125 C-1.18063089 17.08593499 -1.17480223 15.0585907 -1.16796875 13.03125 C-1.16685593 12.07182495 -1.1657431 11.1123999 -1.16459656 10.12390137 C-1.15821671 9.2328772 -1.15183685 8.34185303 -1.14526367 7.42382812 C-1.14145187 6.64011841 -1.13764008 5.85640869 -1.13371277 5.0489502 C-1 3 -1 3 0 0 Z " fill="#3B3935" transform="translate(243,36)"/>
<path d="M0 0 C0.89267578 0.00644531 1.78535156 0.01289062 2.70507812 0.01953125 C4.09823242 0.04466797 4.09823242 0.04466797 5.51953125 0.0703125 C6.45990234 0.07933594 7.40027344 0.08835938 8.36914062 0.09765625 C10.69036093 0.12122194 13.01106769 0.15412134 15.33203125 0.1953125 C20.16937842 13.49801722 17.93724348 27.46947085 16.33203125 41.1953125 C12.67971778 41.85696349 9.16991233 42.35237905 5.45703125 42.3828125 C4.28527344 42.40408203 4.28527344 42.40408203 3.08984375 42.42578125 C-0.63570118 42.11443968 -4.04668717 41.12777287 -7.66796875 40.1953125 C-7.74200115 34.82018061 -7.79651444 29.44534396 -7.83276367 24.06982422 C-7.84787126 22.24034457 -7.86835843 20.41090125 -7.89428711 18.58154297 C-7.9305846 15.95531258 -7.9476749 13.32956001 -7.9609375 10.703125 C-7.97642136 9.88224396 -7.99190521 9.06136292 -8.00785828 8.21560669 C-8.00854492 5.91064453 -8.00854492 5.91064453 -7.66796875 2.1953125 C-4.46390413 0.05926942 -3.67196128 -0.04677658 0 0 Z " fill="#2A2A28" transform="translate(223.66796875,46.8046875)"/>
<path d="M0 0 C1.86205078 -0.01836914 1.86205078 -0.01836914 3.76171875 -0.03710938 C4.95925781 -0.03904297 6.15679687 -0.04097656 7.390625 -0.04296875 C8.48922852 -0.04707764 9.58783203 -0.05118652 10.71972656 -0.05541992 C14.81803529 0.27311836 17.65136686 1.37137253 20.9375 3.8125 C23.38991433 7.02600844 24.50085784 10.14309234 24.75 14.1875 C23.5625 16.625 23.5625 16.625 21.75 18.1875 C20.76 18.5175 19.77 18.8475 18.75 19.1875 C18.26080078 17.90552734 18.26080078 17.90552734 17.76171875 16.59765625 C17.32472656 15.49292969 16.88773438 14.38820313 16.4375 13.25 C16.00824219 12.14785156 15.57898438 11.04570313 15.13671875 9.91015625 C13.99391139 6.87889735 13.99391139 6.87889735 10.75 6.1875 C10.65203125 7.24710938 10.5540625 8.30671875 10.453125 9.3984375 C10.30305727 10.78656397 10.15196208 12.17457963 10 13.5625 C9.9071875 14.61050781 9.9071875 14.61050781 9.8125 15.6796875 C9.578125 17.7109375 9.578125 17.7109375 8.75 21.1875 C6.671875 22.6640625 6.671875 22.6640625 4.75 23.1875 C4.75 20.8775 4.75 18.5675 4.75 16.1875 C4.09 15.8575 3.43 15.5275 2.75 15.1875 C3.08 12.8775 3.41 10.5675 3.75 8.1875 C2.76 8.6825 2.76 8.6825 1.75 9.1875 C0.20976004 9.25700541 -1.33334988 9.27202357 -2.875 9.25 C-4.10089844 9.23646484 -4.10089844 9.23646484 -5.3515625 9.22265625 C-6.29128906 9.20525391 -6.29128906 9.20525391 -7.25 9.1875 C-7.25 10.8375 -7.25 12.4875 -7.25 14.1875 C-4.61 14.1875 -1.97 14.1875 0.75 14.1875 C1.41 16.4975 2.07 18.8075 2.75 21.1875 C0.70301586 23.23448414 -3.55411241 22.88795693 -6.25 23.1875 C-6.91 25.4975 -7.57 27.8075 -8.25 30.1875 C-4.95 30.5175 -1.65 30.8475 1.75 31.1875 C1.75 32.5075 1.75 33.8275 1.75 35.1875 C-0.72923801 35.21435095 -3.2081884 35.23426547 -5.6875 35.25 C-6.39455078 35.25837891 -7.10160156 35.26675781 -7.83007812 35.27539062 C-9.63693559 35.28403588 -11.44387603 35.23970011 -13.25 35.1875 C-14.95492881 33.48257119 -14.3780442 31.34215739 -14.38894653 29.06848145 C-14.3869223 28.35494507 -14.38489807 27.64140869 -14.3828125 26.90625 C-14.38376923 26.17756714 -14.38472595 25.44888428 -14.38571167 24.69812012 C-14.38639335 23.1547029 -14.38453988 21.61128283 -14.38037109 20.06787109 C-14.37502262 17.697526 -14.38031642 15.32737041 -14.38671875 12.95703125 C-14.38605797 11.46093708 -14.3847768 9.96484303 -14.3828125 8.46875 C-14.38483673 7.75521362 -14.38686096 7.04167725 -14.38894653 6.30651855 C-14.34538767 -2.77766158 -7.63815416 0.003917 0 0 Z " fill="#A57837" transform="translate(75.25,53.8125)"/>
<path d="M0 0 C1.94407952 0.07651913 3.89038078 0.10811623 5.8359375 0.09765625 C7.43115234 0.09282227 7.43115234 0.09282227 9.05859375 0.08789062 C10.15300781 0.07951172 11.24742187 0.07113281 12.375 0.0625 C13.49261719 0.05798828 14.61023438 0.05347656 15.76171875 0.04882812 C18.50786804 0.03709244 21.25390586 0.02067363 24 0 C23.69140625 1.921875 23.69140625 1.921875 23 4 C19.9375 5.25 19.9375 5.25 17 6 C17 6.66 17 7.32 17 8 C19.475 8.495 19.475 8.495 22 9 C22.495 10.98 22.495 10.98 23 13 C21.68 13.99 20.36 14.98 19 16 C19.639375 16.268125 20.27875 16.53625 20.9375 16.8125 C23 18 23 18 24 21 C22.91015625 22.5234375 22.91015625 22.5234375 21 24 C17.93359375 24.0390625 17.93359375 24.0390625 14.4375 23.625 C10.0699891 22.89997835 10.0699891 22.89997835 6 24 C1.98329243 24.26195919 -0.51370014 23.99217135 -4 22 C-4.66 22 -5.32 22 -6 22 C-6.33 22.66 -6.66 23.32 -7 24 C-10.4375 22.6875 -10.4375 22.6875 -14 21 C-14.33 20.01 -14.66 19.02 -15 18 C-15.66 17.67 -16.32 17.34 -17 17 C-16.34 14.03 -15.68 11.06 -15 8 C-14.34 8.33 -13.68 8.66 -13 9 C-13 10.98 -13 12.96 -13 15 C-11.35 15.33 -9.7 15.66 -8 16 C-8 10.72 -8 5.44 -8 0 C-5.12905275 -1.43547363 -3.12874694 -0.5491222 0 0 Z M6.4375 5.5 C5.963125 5.995 5.48875 6.49 5 7 C5.99 8.485 5.99 8.485 7 10 C7.66 10 8.32 10 9 10 C9 8.02 9 6.04 9 4 C7.75923698 3.88457803 7.75923698 3.88457803 6.4375 5.5 Z M-1 11 C-1 12.98 -1 14.96 -1 17 C0.98 17 2.96 17 5 17 C4.88693303 15.04105639 4.88693303 15.04105639 4 13 C1.50965614 11.70339566 1.50965614 11.70339566 -1 11 Z " fill="#B38E56" transform="translate(163,98)"/>
<path d="M0 0 C2 3 2 3 2 6 C2.66 6 3.32 6 4 6 C4.66 6.66 5.32 7.32 6 8 C5.773125 7.071875 5.54625 6.14375 5.3125 5.1875 C5 2 5 2 6.0625 0.0625 C8 -1 8 -1 14 0 C14 11.55 14 23.1 14 35 C9 36 9 36 6.8125 34.625 C4.65162353 31.49545477 4.1804428 28.88883636 3.50390625 25.1953125 C2.86517896 22.41264011 1.64373735 20.31617536 0 18 C-0.33 21.63 -0.66 25.26 -1 29 C-1.66 29 -2.32 29 -3 29 C-3 30.32 -3 31.64 -3 33 C-4.98 33 -6.96 33 -9 33 C-9.82936321 26.83901617 -10.13165744 20.70969215 -10.1875 14.5 C-10.20039063 13.79359375 -10.21328125 13.0871875 -10.2265625 12.359375 C-10.23002771 10.57132445 -10.12295033 8.78382174 -10 7 C-9.34 6.34 -8.68 5.68 -8 5 C-8.66 4.67 -9.32 4.34 -10 4 C-9.625 2.0625 -9.625 2.0625 -9 0 C-5.85135005 -1.57432497 -3.35512575 -0.71895552 0 0 Z M6 2 C7 4 7 4 7 4 Z " fill="#A0712F" transform="translate(170,55)"/>
<path d="M0 0 C3 2 3 2 5 4 C4.3125 6.4375 4.3125 6.4375 3 9 C-0.63422011 10.37511031 -3.2908103 9.78088204 -7 9 C-7.99 9.33 -8.98 9.66 -10 10 C-10.36644578 11.55966592 -10.71760862 13.12292651 -11.0625 14.6875 C-11.25972656 15.55761719 -11.45695312 16.42773438 -11.66015625 17.32421875 C-12.16064709 21.26486499 -11.24252092 24.27243724 -10 28 C-8.02 28 -6.04 28 -4 28 C-4 27.01 -4 26.02 -4 25 C-4.515625 24.54625 -5.03125 24.0925 -5.5625 23.625 C-6.036875 23.08875 -6.51125 22.5525 -7 22 C-6.58984375 19.3984375 -6.58984375 19.3984375 -6 17 C-4.18757948 16.97312721 -2.37504767 16.95366285 -0.5625 16.9375 C0.44683594 16.92589844 1.45617187 16.91429688 2.49609375 16.90234375 C5 17 5 17 6 18 C6.08631874 19.34267413 6.10706473 20.68974322 6.09765625 22.03515625 C6.09443359 22.84404297 6.09121094 23.65292969 6.08789062 24.48632812 C6.07951172 25.33646484 6.07113281 26.18660156 6.0625 27.0625 C6.05798828 27.91650391 6.05347656 28.77050781 6.04882812 29.65039062 C6.03700373 31.76695663 6.01906769 33.88348685 6 36 C-7.40871935 38.38419619 -7.40871935 38.38419619 -13 35 C-17.796495 30.89726238 -19.87096949 26.78220686 -20.83203125 20.578125 C-21.09199243 16.58802321 -20.63615985 12.94419106 -20 9 C-19.34 9 -18.68 9 -18 9 C-17.95875 8.4225 -17.9175 7.845 -17.875 7.25 C-16.54500609 3.83001567 -14.09911668 2.79748768 -11 1 C-7.29455389 -0.2351487 -3.85094809 -0.576893 0 0 Z " fill="#9A6D2E" transform="translate(54,54)"/>
<path d="M0 0 C0.33 0 0.66 0 1 0 C1.33 10.89 1.66 21.78 2 33 C6.95 33.33 11.9 33.66 17 34 C17 32.68 17 31.36 17 30 C15.906875 30.020625 14.81375 30.04125 13.6875 30.0625 C10 30 10 30 7 29 C7.33 28.34 7.66 27.68 8 27 C8.95712891 27.01740234 8.95712891 27.01740234 9.93359375 27.03515625 C10.75988281 27.04417969 11.58617188 27.05320312 12.4375 27.0625 C13.67306641 27.07990234 13.67306641 27.07990234 14.93359375 27.09765625 C16.99163938 27.23267348 16.99163938 27.23267348 18 26 C18.23363881 24.15108054 18.41303635 22.29511969 18.5625 20.4375 C18.64628906 19.42558594 18.73007813 18.41367188 18.81640625 17.37109375 C18.90728516 16.19740234 18.90728516 16.19740234 19 15 C19.33 15 19.66 15 20 15 C20 17.31 20 19.62 20 22 C23.2857977 20.3032037 23.2857977 20.3032037 23.6953125 17.03125 C23.90800781 15.28328125 23.90800781 15.28328125 24.125 13.5 C24.9260355 7.14792899 24.9260355 7.14792899 26 5 C27.32 5.33 28.64 5.66 30 6 C29.505 6.53625 29.01 7.0725 28.5 7.625 C26.61693048 10.60652674 26.84929842 12.53386366 27 16 C26.67 16.66 26.34 17.32 26 18 C28.16874252 17.49396008 29.99967627 17.00016187 32 16 C32.33 15.01 32.66 14.02 33 13 C33.66 14.32 34.32 15.64 35 17 C37.18712805 15.39795381 37.18712805 15.39795381 39 13 C38.85650653 9.80045046 38.85650653 9.80045046 38 7 C38.99 7 39.98 7 41 7 C41 11.95 41 16.9 41 22 C39.68 22 38.36 22 37 22 C35.2488427 23.4166747 35.2488427 23.4166747 34 25 C35.32 25.66 36.64 26.32 38 27 C38.33 25.68 38.66 24.36 39 23 C40.98 22.67 42.96 22.34 45 22 C45.495 15.565 45.495 15.565 46 9 C48 11 48 11 48.24291992 13.21484375 C48.23881104 14.11332031 48.23470215 15.01179688 48.23046875 15.9375 C48.22853516 16.91460937 48.22660156 17.89171875 48.22460938 18.8984375 C48.20624023 20.43371094 48.20624023 20.43371094 48.1875 22 C48.18685547 23.02351563 48.18621094 24.04703125 48.18554688 25.1015625 C48.14032251 32.71935497 48.14032251 32.71935497 47 35 C42.05122578 36.05390562 36.88947792 36.46684337 32 35 C32 34.34 32 33.68 32 33 C30.35 32.67 28.7 32.34 27 32 C26.67 32.99 26.34 33.98 26 35 C21.42900043 35.89017921 17.09153562 36.1343926 12.4375 36.125 C11.15746094 36.12757812 9.87742187 36.13015625 8.55859375 36.1328125 C5.55692156 36.02078522 2.90913811 35.70355355 0 35 C-1.86666667 3.73333333 -1.86666667 3.73333333 0 0 Z " fill="#B58E4E" transform="translate(60,55)"/>
<path d="M0 0 C0.598125 0.350625 1.19625 0.70125 1.8125 1.0625 C1.8125 1.7225 1.8125 2.3825 1.8125 3.0625 C2.8025 3.0625 3.7925 3.0625 4.8125 3.0625 C4.8125 2.4025 4.8125 1.7425 4.8125 1.0625 C7.35689574 -0.20969787 9.09776614 -0.00078098 11.9375 0.0625 C15.44493601 0.11744678 18.62416793 -0.01331724 22.0625 -0.6875 C27.00156708 -1.01677114 28.8008871 0.30451613 32.8125 3.0625 C32.8125 2.0725 32.8125 1.0825 32.8125 0.0625 C37.1025 0.0625 41.3925 0.0625 45.8125 0.0625 C46.3075 2.0425 46.3075 2.0425 46.8125 4.0625 C45.8125 5.0625 45.8125 5.0625 42.25 5.125 C41.115625 5.104375 39.98125 5.08375 38.8125 5.0625 C39.3075 6.5475 39.3075 6.5475 39.8125 8.0625 C40.59625 8.165625 41.38 8.26875 42.1875 8.375 C44.8125 9.0625 44.8125 9.0625 46.8125 12.0625 C46.1525 12.3925 45.4925 12.7225 44.8125 13.0625 C44.3175 12.0725 44.3175 12.0725 43.8125 11.0625 C41.49043475 10.35758733 39.15656932 9.69037571 36.8125 9.0625 C36.3175 8.5675 36.3175 8.5675 35.8125 8.0625 C34.8225 11.6925 33.8325 15.3225 32.8125 19.0625 C32.1525 19.0625 31.4925 19.0625 30.8125 19.0625 C30.8125 17.4125 30.8125 15.7625 30.8125 14.0625 C29.94625 15.3 29.94625 15.3 29.0625 16.5625 C28.32 17.3875 27.5775 18.2125 26.8125 19.0625 C25.4925 19.0625 24.1725 19.0625 22.8125 19.0625 C22.4825 16.0925 22.1525 13.1225 21.8125 10.0625 C19.67663322 13.26630017 19.58117825 14.08189967 19.6875 17.75 C19.71457031 18.96236328 19.71457031 18.96236328 19.7421875 20.19921875 C19.76539062 20.81410156 19.78859375 21.42898437 19.8125 22.0625 C19.1525 22.0625 18.4925 22.0625 17.8125 22.0625 C17.8125 19.0925 17.8125 16.1225 17.8125 13.0625 C16.8225 13.7225 15.8325 14.3825 14.8125 15.0625 C11.625 15.1875 11.625 15.1875 8.8125 15.0625 C9.8025 14.7325 10.7925 14.4025 11.8125 14.0625 C11.8125 11.4225 11.8125 8.7825 11.8125 6.0625 C9.8325 7.0525 9.8325 7.0525 7.8125 8.0625 C7.8125 6.4125 7.8125 4.7625 7.8125 3.0625 C6.8225 3.7225 5.8325 4.3825 4.8125 5.0625 C2.82450182 5.76414642 0.82551483 6.43622872 -1.1875 7.0625 C-1.1875 6.0725 -1.1875 5.0825 -1.1875 4.0625 C-2.1775 4.5575 -2.1775 4.5575 -3.1875 5.0625 C-3.84522428 8.09184491 -3.84522428 8.09184491 -4.1875 11.0625 C-3.1975 11.3925 -2.2075 11.7225 -1.1875 12.0625 C-2.8375 12.3925 -4.4875 12.7225 -6.1875 13.0625 C-6.21458567 11.45842672 -6.23393483 9.8542215 -6.25 8.25 C-6.26160156 7.35667969 -6.27320313 6.46335937 -6.28515625 5.54296875 C-6.1875 3.0625 -6.1875 3.0625 -5.1875 0.0625 C-2.1875 -0.9375 -2.1875 -0.9375 0 0 Z M24.8125 6.0625 C24.8125 9.6925 24.8125 13.3225 24.8125 17.0625 C25.8025 16.7325 26.7925 16.4025 27.8125 16.0625 C28.86486973 12.71405086 29.01255388 11.47170111 27.4375 8.25 C26.90125 7.528125 26.365 6.80625 25.8125 6.0625 C25.4825 6.0625 25.1525 6.0625 24.8125 6.0625 Z " fill="#AB8141" transform="translate(59.1875,97.9375)"/>
<path d="M0 0 C1.19109375 0.13535156 1.19109375 0.13535156 2.40625 0.2734375 C4.5 0.625 4.5 0.625 6.5 1.625 C8.50800456 1.34387936 10.51014051 1.01432033 12.5 0.625 C11.51 1.12 11.51 1.12 10.5 1.625 C10.5 2.945 10.5 4.265 10.5 5.625 C12.48 5.625 14.46 5.625 16.5 5.625 C16.17 6.615 15.84 7.605 15.5 8.625 C14.51 8.625 13.52 8.625 12.5 8.625 C12.17 9.285 11.84 9.945 11.5 10.625 C10.84 10.625 10.18 10.625 9.5 10.625 C9.5721875 11.26824219 9.644375 11.91148438 9.71875 12.57421875 C10.47577262 19.94467507 10.60595877 27.21965929 10.5 34.625 C6.78125 36.671875 6.78125 36.671875 4.25 36.25 C3.6725 36.04375 3.095 35.8375 2.5 35.625 C1.72471521 32.19926063 1.38081222 29.05260755 1.40234375 25.54296875 C1.40556641 24.61162109 1.40878906 23.68027344 1.41210938 22.72070312 C1.42048828 21.76099609 1.42886719 20.80128906 1.4375 19.8125 C1.44201172 18.83345703 1.44652344 17.85441406 1.45117188 16.84570312 C1.46291316 14.43873889 1.47933581 12.03190143 1.5 9.625 C-1.47 9.13 -1.47 9.13 -4.5 8.625 C-5.85091528 11.32683055 -5.83858058 13.74308206 -6.0625 16.75 C-6.14628906 17.84570312 -6.23007813 18.94140625 -6.31640625 20.0703125 C-6.37699219 20.91335937 -6.43757813 21.75640625 -6.5 22.625 C-9.51031744 23.55923645 -10.36650268 23.66949911 -13.5 22.625 C-12.84 22.625 -12.18 22.625 -11.5 22.625 C-11.64179687 21.45582031 -11.78359375 20.28664063 -11.9296875 19.08203125 C-12.07979812 17.5340155 -12.22814307 15.98582781 -12.375 14.4375 C-12.47296875 13.66857422 -12.5709375 12.89964844 -12.671875 12.10742188 C-13.15550008 6.47318969 -13.15550008 6.47318969 -11.23925781 3.99365234 C-7.35463998 0.71239005 -4.94174178 -0.5936508 0 0 Z " fill="#A77B3A" transform="translate(112.5,54.375)"/>
<path d="M0 0 C1.38638672 -0.0309375 1.38638672 -0.0309375 2.80078125 -0.0625 C3.68894531 -0.06765625 4.57710938 -0.0728125 5.4921875 -0.078125 C6.30800293 -0.0874707 7.12381836 -0.09681641 7.96435547 -0.10644531 C10.69272549 0.34365867 11.4132848 1.11247445 13.125 3.25 C13.53286743 5.20283508 13.53286743 5.20283508 13.57666016 7.44262695 C13.5990274 8.28392654 13.62139465 9.12522614 13.6444397 9.99201965 C13.65091522 10.89828598 13.65739075 11.80455231 13.6640625 12.73828125 C13.67641937 13.6742363 13.68877625 14.61019135 13.70150757 15.57450867 C13.72108148 17.55571232 13.73230726 19.53701335 13.73583984 21.51831055 C13.74990402 24.54186549 13.8171969 27.56126327 13.88671875 30.58398438 C13.89912028 32.51039831 13.90833829 34.4368359 13.9140625 36.36328125 C13.95413925 37.7135717 13.95413925 37.7135717 13.99502563 39.09114075 C13.92843527 45.2796857 13.92843527 45.2796857 11.5133667 48.19638062 C9.78019955 49.69149455 8.04989689 51.01464262 6.125 52.25 C5.465 51.59 4.805 50.93 4.125 50.25 C5.3473938 49.69928833 5.3473938 49.69928833 6.59448242 49.13745117 C9.40532561 47.47924549 9.40532561 47.47924549 9.69262695 44.4309082 C9.66644287 43.31546631 9.64025879 42.20002441 9.61328125 41.05078125 C9.59716797 39.84228516 9.58105469 38.63378906 9.56445312 37.38867188 C9.52255859 36.12603516 9.48066406 34.86339844 9.4375 33.5625 C9.41494141 32.28826172 9.39238281 31.01402344 9.36914062 29.70117188 C9.31012262 26.5496104 9.22782975 23.40038721 9.125 20.25 C6.815 20.25 4.505 20.25 2.125 20.25 C2.455 17.94 2.785 15.63 3.125 13.25 C1.805 13.25 0.485 13.25 -0.875 13.25 C-0.545 15.56 -0.215 17.87 0.125 20.25 C-2.185 20.25 -4.495 20.25 -6.875 20.25 C-6.875 15.3 -6.875 10.35 -6.875 5.25 C-4.565 5.25 -2.255 5.25 0.125 5.25 C-0.205 7.56 -0.535 9.87 -0.875 12.25 C0.445 12.25 1.765 12.25 3.125 12.25 C2.795 9.94 2.465 7.63 2.125 5.25 C4.435 5.25 6.745 5.25 9.125 5.25 C9.125 4.59 9.125 3.93 9.125 3.25 C2.855 3.25 -3.415 3.25 -9.875 3.25 C-9.875 5.56 -9.875 7.87 -9.875 10.25 C-10.865 9.59 -11.855 8.93 -12.875 8.25 C-10.39240403 -0.85285187 -8.87824805 0.04911894 0 0 Z M4.125 11.25 C5.125 13.25 5.125 13.25 5.125 13.25 Z M5.125 13.25 C4.795 14.24 4.465 15.23 4.125 16.25 C4.785 16.91 5.445 17.57 6.125 18.25 C6.125 16.6 6.125 14.95 6.125 13.25 C5.795 13.25 5.465 13.25 5.125 13.25 Z " fill="#615340" transform="translate(280.875,21.75)"/>
<path d="M0 0 C6.75 1.875 6.75 1.875 9 3 C10.98256098 2.91156922 12.96246431 2.75641259 14.9375 2.5625 C17.98546339 2.26992514 20.93737528 2 24 2 C25.1446875 1.7525 25.1446875 1.7525 26.3125 1.5 C29.35736955 0.93351264 31.91248228 0.66440025 35 1 C36.875 2.8125 36.875 2.8125 38 5 C38 5.99 38 6.98 38 8 C38.31088368 9.67099977 38.64080332 11.33871537 39 13 C39.99 13.33 40.98 13.66 42 14 C41.01 14.33 40.02 14.66 39 15 C38.01 14.01 37.02 13.02 36 12 C36.33 11.01 36.66 10.02 37 9 C36.34 9 35.68 9 35 9 C35 7.02 35 5.04 35 3 C31.7 3.33 28.4 3.66 25 4 C25.185625 5.27875 25.37125 6.5575 25.5625 7.875 C26.125 11.75 26.125 11.75 25 14 C21.54956883 15.15014372 18.64717645 16 15 16 C14.67 16.33 14.34 16.66 14 17 C14.33 17.66 14.66 18.32 15 19 C12.0625 18.25 12.0625 18.25 9 17 C8.125 14.875 8.125 14.875 8 13 C6.68 12.67 5.36 12.34 4 12 C4 11.34 4 10.68 4 10 C3.34 10 2.68 10 2 10 C2 9.34 2 8.68 2 8 C1.01 7.67 0.02 7.34 -1 7 C-1.33 5.35 -1.66 3.7 -2 2 C-1.34 2 -0.68 2 0 2 C0 1.34 0 0.68 0 0 Z " fill="#645B4D" transform="translate(216,104)"/>
<path d="M0 0 C0 1.98 0 3.96 0 6 C0.66 6 1.32 6 2 6 C2 7.65 2 9.3 2 11 C5.3 11.33 8.6 11.66 12 12 C11.01 14.97 10.02 17.94 9 21 C8.071875 20.814375 7.14375 20.62875 6.1875 20.4375 C2.82096719 19.93115157 -0.18695591 20.16591968 -3.5625 20.5625 C-10.82367495 21.31639248 -15.17385124 19.36961157 -21 15 C-21.66 14.01 -22.32 13.02 -23 12 C-20.525 12.495 -20.525 12.495 -18 13 C-18 12.67 -18 12.34 -18 12 C-13.545 11.505 -13.545 11.505 -9 11 C-9.33 10.01 -9.66 9.02 -10 8 C-10.03954234 5.66700175 -10.04401732 3.33291811 -10 1 C-6.52674819 -0.1577506 -3.63932552 -0.06866652 0 0 Z " fill="#5F594F" transform="translate(251,107)"/>
<path d="M0 0 C2.31 0 4.62 0 7 0 C7 2.31 7 4.62 7 7 C7.99 6.67 8.98 6.34 10 6 C10 4.35 10 2.7 10 1 C10.66 1.66 11.32 2.32 12 3 C12.99 2.67 13.98 2.34 15 2 C15.75277515 4.73249341 16.16641703 7.28100683 16.31640625 10.109375 C16.35830078 10.86347656 16.40019531 11.61757812 16.44335938 12.39453125 C16.48267578 13.17183594 16.52199219 13.94914062 16.5625 14.75 C16.60568359 15.54277344 16.64886719 16.33554688 16.69335938 17.15234375 C16.79902991 19.10137815 16.89997966 21.05066748 17 23 C15.35 23.33 13.7 23.66 12 24 C10.58622659 21.36095629 9.62759865 18.92879371 9 16 C8.34 16 7.68 16 7 16 C7.020625 16.969375 7.04125 17.93875 7.0625 18.9375 C7 22 7 22 6 23 C3.5 23.125 3.5 23.125 1 23 C0 22 0 22 -0.11352539 19.86694336 C-0.10828857 18.95050049 -0.10305176 18.03405762 -0.09765625 17.08984375 C-0.09443359 16.10048828 -0.09121094 15.11113281 -0.08789062 14.09179688 C-0.07951172 13.05087891 -0.07113281 12.00996094 -0.0625 10.9375 C-0.05798828 9.89271484 -0.05347656 8.84792969 -0.04882812 7.77148438 C-0.03699913 5.1809334 -0.02051689 2.59049441 0 0 Z " fill="#9F712F" transform="translate(110,98)"/>
<path d="M0 0 C0.89267578 0.00644531 1.78535156 0.01289062 2.70507812 0.01953125 C4.09823242 0.04466797 4.09823242 0.04466797 5.51953125 0.0703125 C6.45990234 0.07933594 7.40027344 0.08835938 8.36914062 0.09765625 C10.69036093 0.12122194 13.01106769 0.15412134 15.33203125 0.1953125 C15.66203125 0.8553125 15.99203125 1.5153125 16.33203125 2.1953125 C9.73203125 2.5253125 3.13203125 2.8553125 -3.66796875 3.1953125 C-4.3866724 15.41327462 -4.77485121 27.01960543 -3.66796875 39.1953125 C2.60203125 39.1953125 8.87203125 39.1953125 15.33203125 39.1953125 C15.33203125 27.3153125 15.33203125 15.4353125 15.33203125 3.1953125 C21.86477065 12.99442161 17.62563247 30.13399288 16.33203125 41.1953125 C12.67971778 41.85696349 9.16991233 42.35237905 5.45703125 42.3828125 C4.28527344 42.40408203 4.28527344 42.40408203 3.08984375 42.42578125 C-0.63570118 42.11443968 -4.04668717 41.12777287 -7.66796875 40.1953125 C-7.74200115 34.82018061 -7.79651444 29.44534396 -7.83276367 24.06982422 C-7.84787126 22.24034457 -7.86835843 20.41090125 -7.89428711 18.58154297 C-7.9305846 15.95531258 -7.9476749 13.32956001 -7.9609375 10.703125 C-7.97642136 9.88224396 -7.99190521 9.06136292 -8.00785828 8.21560669 C-8.00854492 5.91064453 -8.00854492 5.91064453 -7.66796875 2.1953125 C-4.46390413 0.05926942 -3.67196128 -0.04677658 0 0 Z " fill="#5F5140" transform="translate(223.66796875,46.8046875)"/>
<path d="M0 0 C3.94692294 3.88471224 4.27076683 7.01493885 4.390625 12.4921875 C4.36416004 14.95342911 4.31663805 17.41451834 4.25 19.875 C4.23195312 21.13570312 4.21390625 22.39640625 4.1953125 23.6953125 C4.14830729 26.79765614 4.08260676 29.8984338 4 33 C2.07421875 32.6796875 2.07421875 32.6796875 0 32 C-1.1875 29.125 -1.1875 29.125 -2 26 C-2.33 25.01 -2.66 24.02 -3 23 C-2.01 23 -1.02 23 0 23 C0 21.02 0 19.04 0 17 C-0.99 16.67 -1.98 16.34 -3 16 C-3 13.36 -3 10.72 -3 8 C-3.66 8 -4.32 8 -5 8 C-5 7.34 -5 6.68 -5 6 C-5.9075 6.33 -6.815 6.66 -7.75 7 C-11 8 -11 8 -15 8 C-13.67048346 1.47328244 -13.67048346 1.47328244 -10.875 -0.5 C-7.15034968 -1.14776527 -3.51677066 -1.56611656 0 0 Z " fill="#A06F29" transform="translate(155,55)"/>
<path d="M0 0 C2.97 0.495 2.97 0.495 6 1 C5.33333333 3 4.66666667 5 4 7 C3.9081723 8.44567986 3.86933402 9.89515828 3.8671875 11.34375 C3.86589844 12.17777344 3.86460937 13.01179688 3.86328125 13.87109375 C3.86908203 15.17240234 3.86908203 15.17240234 3.875 16.5 C3.87113281 17.36753906 3.86726563 18.23507813 3.86328125 19.12890625 C3.86521484 20.37994141 3.86521484 20.37994141 3.8671875 21.65625 C3.86831543 22.41744141 3.86944336 23.17863281 3.87060547 23.96289062 C3.9258285 26.20324188 3.9258285 26.20324188 5 29 C6.97536745 28.65213292 6.97536745 28.65213292 9 28 C9.33 27.34 9.66 26.68 10 26 C10.66 26 11.32 26 12 26 C12.125 28.375 12.125 28.375 12 31 C11.34 31.66 10.68 32.32 10 33 C7.99453311 32.70131344 5.99422795 32.36628677 4 32 C2.515 32.495 2.515 32.495 1 33 C-1.24580028 32.59167268 -2.95574098 32.02212951 -5 31 C-5 29.02 -5 27.04 -5 25 C-6.65 25.33 -8.3 25.66 -10 26 C-10.268125 26.969375 -10.53625 27.93875 -10.8125 28.9375 C-11.204375 29.948125 -11.59625 30.95875 -12 32 C-14.94229921 32.9807664 -16.9908784 33.16488128 -20.0625 33.1875 C-20.94035156 33.20167969 -21.81820312 33.21585938 -22.72265625 33.23046875 C-25 33 -25 33 -27 31 C-27.22705078 28.84521484 -27.22705078 28.84521484 -27.1953125 26.2109375 C-27.18886719 25.26992187 -27.18242187 24.32890625 -27.17578125 23.359375 C-27.15902344 22.37453125 -27.14226562 21.3896875 -27.125 20.375 C-27.11597656 19.38242188 -27.10695312 18.38984375 -27.09765625 17.3671875 C-27.07404116 14.91121866 -27.04110799 12.45572832 -27 10 C-26.34 10 -25.68 10 -25 10 C-24.67 16.6 -24.34 23.2 -24 30 C-22.35 30.33 -20.7 30.66 -19 31 C-19 23.41 -19 15.82 -19 8 C-18.67 8 -18.34 8 -18 8 C-17.67 15.26 -17.34 22.52 -17 30 C-15.68 30 -14.36 30 -13 30 C-13 28.02 -13 26.04 -13 24 C-9.37 24 -5.74 24 -2 24 C-1.67 25.65 -1.34 27.3 -1 29 C-0.01 29.33 0.98 29.66 2 30 C1.86138974 25.56224325 1.71288136 21.12487223 1.5625 16.6875 C1.52318359 15.42486328 1.48386719 14.16222656 1.44335938 12.86132812 C1.40146484 11.65283203 1.35957031 10.44433594 1.31640625 9.19921875 C1.27974854 8.08377686 1.24309082 6.96833496 1.20532227 5.8190918 C1.11068791 2.92126429 1.11068791 2.92126429 0 0 Z " fill="#C3A571" transform="translate(157,58)"/>
<path d="M0 0 C4.29 0 8.58 0 13 0 C12.67 1.32 12.34 2.64 12 4 C8.9375 5.25 8.9375 5.25 6 6 C6 6.66 6 7.32 6 8 C7.65 8.33 9.3 8.66 11 9 C11.33 10.32 11.66 11.64 12 13 C10.576875 13.928125 10.576875 13.928125 9.125 14.875 C6.05554891 16.81970969 6.05554891 16.81970969 4 19 C5.98 19 7.96 19 10 19 C10 19.99 10 20.98 10 22 C6.7 22 3.4 22 0 22 C0 14.74 0 7.48 0 0 Z " fill="#9A641C" transform="translate(174,98)"/>
<path d="M0 0 C1.5625 1.0625 1.5625 1.0625 3 3 C2.814375 4.134375 2.62875 5.26875 2.4375 6.4375 C1.59016065 10.01043876 1.59016065 10.01043876 3.75 12.4375 C5.95413067 14.2851979 5.95413067 14.2851979 9 14 C9.33 13.01 9.66 12.02 10 11 C10.66 11 11.32 11 12 11 C12 9.02 12 7.04 12 5 C12.99 5 13.98 5 15 5 C16.14559325 8.5409246 16.12489895 9.73458973 14.5 13.1875 C14.005 14.115625 13.51 15.04375 13 16 C13.33 16.66 13.66 17.32 14 18 C9.92081084 20.96668302 7.01742187 21.63858096 2 21 C-1.20053602 18.6417103 -2.28390166 16.82369492 -3 13 C-3.1394363 11.12833578 -3.21965058 9.25160554 -3.25 7.375 C-3.27578125 6.41335937 -3.3015625 5.45171875 -3.328125 4.4609375 C-3.21984375 3.64882812 -3.1115625 2.83671875 -3 2 C-2.01 1.34 -1.02 0.68 0 0 Z " fill="#A88146" transform="translate(130,101)"/>
<path d="M0 0 C3.0466145 1.01553817 5.31143836 2.20762558 8 4 C8 3.01 8 2.02 8 1 C12.29 1 16.58 1 21 1 C21.33 2.32 21.66 3.64 22 5 C21 6 21 6 17.4375 6.0625 C16.303125 6.041875 15.16875 6.02125 14 6 C14.33 6.99 14.66 7.98 15 9 C15.78375 9.103125 16.5675 9.20625 17.375 9.3125 C20 10 20 10 22 13 C21.01 13.495 21.01 13.495 20 14 C19.67 13.34 19.34 12.68 19 12 C16.67793475 11.29508733 14.34406932 10.62787571 12 10 C11.67 9.67 11.34 9.34 11 9 C10.01 12.63 9.02 16.26 8 20 C7.34 20 6.68 20 6 20 C6.33 16.37 6.66 12.74 7 9 C5.68 9.33 4.36 9.66 3 10 C2.34 9.34 1.68 8.68 1 8 C0.34 8.99 -0.32 9.98 -1 11 C-2 4.375 -2 4.375 -2 1 C-1.34 0.67 -0.68 0.34 0 0 Z " fill="#B68D4A" transform="translate(84,97)"/>
<path d="M0 0 C2 2 2 2 2.24291992 4.21484375 C2.23675659 5.56255859 2.23675659 5.56255859 2.23046875 6.9375 C2.22853516 7.91460937 2.22660156 8.89171875 2.22460938 9.8984375 C2.20624023 11.43371094 2.20624023 11.43371094 2.1875 13 C2.18685547 14.02351563 2.18621094 15.04703125 2.18554688 16.1015625 C2.14032251 23.71935497 2.14032251 23.71935497 1 26 C-3.94877422 27.05390562 -9.11052208 27.46684337 -14 26 C-14 25.34 -14 24.68 -14 24 C-14.66 23.67 -15.32 23.34 -16 23 C-13.03 23.33 -10.06 23.66 -7 24 C-7.33 23.01 -7.66 22.02 -8 21 C-8.66 20.67 -9.32 20.34 -10 20 C-9.67 19.34 -9.34 18.68 -9 18 C-8.773125 17.319375 -8.54625 16.63875 -8.3125 15.9375 C-7.879375 15.298125 -7.44625 14.65875 -7 14 C-5.02 13.67 -3.04 13.34 -1 13 C-0.67 8.71 -0.34 4.42 0 0 Z " fill="#C3A367" transform="translate(106,64)"/>
<path d="M0 0 C0.66 0.99 1.32 1.98 2 3 C1.1015625 5.69921875 1.1015625 5.69921875 -0.375 8.6875 C-1.09816406 10.17830078 -1.09816406 10.17830078 -1.8359375 11.69921875 C-2.22007812 12.45847656 -2.60421875 13.21773437 -3 14 C-5.97 13.67 -8.94 13.34 -12 13 C-12 11.35 -12 9.7 -12 8 C-12.66 7.67 -13.32 7.34 -14 7 C-13.34 7 -12.68 7 -12 7 C-12.2784375 6.071875 -12.2784375 6.071875 -12.5625 5.125 C-13 3 -13 3 -12 1 C-8.04587834 0.23959199 -4.0189569 -0.45930936 0 0 Z " fill="#3A3833" transform="translate(267,104)"/>
<path d="M0 0 C0.66 0.66 1.32 1.32 2 2 C4.31765729 2.71927295 6.65095874 3.3909893 9 4 C9 5.32 9 6.64 9 8 C8.195625 8.12375 7.39125 8.2475 6.5625 8.375 C5.716875 8.58125 4.87125 8.7875 4 9 C3.67 9.66 3.34 10.32 3 11 C3.94875 10.79375 4.8975 10.5875 5.875 10.375 C6.90625 10.25125 7.9375 10.1275 9 10 C11 12 11 12 11 16 C4.565 16.495 4.565 16.495 -2 17 C-2.05398987 14.72942623 -2.09278742 12.45848712 -2.125 10.1875 C-2.14820312 8.92292969 -2.17140625 7.65835938 -2.1953125 6.35546875 C-2 3 -2 3 0 0 Z " fill="#AC8142" transform="translate(95,105)"/>
<path d="M0 0 C0.66 0.33 1.32 0.66 2 1 C2.144375 2.134375 2.28875 3.26875 2.4375 4.4375 C2.623125 5.613125 2.80875 6.78875 3 8 C3.99 8.66 4.98 9.32 6 10 C6 7.36 6 4.72 6 2 C6.66 2 7.32 2 8 2 C8 8.27 8 14.54 8 21 C4.01652411 22.99173794 2.3149989 23.46902162 -2 23 C-2.66 22.01 -3.32 21.02 -4 20 C-1.64046906 17.64046906 -0.22104383 17.50858587 3 17 C3 15.68 3 14.36 3 13 C2.38125 12.731875 1.7625 12.46375 1.125 12.1875 C-1 11 -1 11 -3 8 C-3.3125 5.5 -3.3125 5.5 -3 3 C-1.5 1.1875 -1.5 1.1875 0 0 Z " fill="#976B2D" transform="translate(165,99)"/>
<path d="M0 0 C1.2375 0.0825 2.475 0.165 3.75 0.25 C4.44609375 0.29640625 5.1421875 0.3428125 5.859375 0.390625 C8.9131024 1.25993426 10.12107225 2.45002663 12 5 C12.390625 8.234375 12.390625 8.234375 12.25 11.75 C12.21390625 12.92046875 12.1778125 14.0909375 12.140625 15.296875 C12.07101563 16.63492188 12.07101563 16.63492188 12 18 C10.68 18 9.36 18 8 18 C8 16.68 8 15.36 8 14 C7.34 14 6.68 14 6 14 C4.64560332 11.29120665 4.93498549 8.99066732 5 6 C3.02 6 1.04 6 -1 6 C-0.67 4.02 -0.34 2.04 0 0 Z " fill="#9F712F" transform="translate(124,54)"/>
<path d="M0 0 C0.66 0.33 1.32 0.66 2 1 C2.11941996 13.71159085 1.85785424 26.31601228 1 39 C1.33 39 1.66 39 2 39 C2 40.98 2 42.96 2 45 C2.75925781 44.69964844 3.51851563 44.39929688 4.30078125 44.08984375 C5.29464844 43.70957031 6.28851563 43.32929687 7.3125 42.9375 C8.29863281 42.55464844 9.28476562 42.17179687 10.30078125 41.77734375 C13 41 13 41 16 42 C14.23002526 42.81436868 12.45898848 43.6264294 10.6875 44.4375 C9.70136719 44.88996094 8.71523438 45.34242187 7.69921875 45.80859375 C5 47 5 47 2 48 C0.05920559 46.38814904 -0.90931719 45.4995537 -1.36749268 42.97555542 C-1.36384705 42.20357819 -1.36020142 41.43160095 -1.35644531 40.63623047 C-1.35944641 39.75877167 -1.36244751 38.88131287 -1.36553955 37.9772644 C-1.35319275 37.03343903 -1.34084595 36.08961365 -1.328125 35.1171875 C-1.32625183 34.14717804 -1.32437866 33.17716858 -1.32244873 32.17776489 C-1.31572701 30.12840332 -1.30181016 28.07905461 -1.28125 26.02978516 C-1.25005363 22.88041364 -1.24027572 19.73154205 -1.234375 16.58203125 C-1.22520694 14.59374385 -1.2148318 12.60546157 -1.203125 10.6171875 C-1.19887512 9.66931366 -1.19462524 8.72143982 -1.19024658 7.74484253 C-1.18063904 6.87368805 -1.17103149 6.00253357 -1.16113281 5.10498047 C-1.15430481 4.33459442 -1.14747681 3.56420837 -1.14044189 2.77047729 C-1 1 -1 1 0 0 Z " fill="#8C7E66" transform="translate(269,33)"/>
<path d="M0 0 C0.33 0 0.66 0 1 0 C1.33 10.89 1.66 21.78 2 33 C6.95 33.33 11.9 33.66 17 34 C17 32.68 17 31.36 17 30 C15.906875 30.020625 14.81375 30.04125 13.6875 30.0625 C10 30 10 30 7 29 C7.33 28.34 7.66 27.68 8 27 C8.61488281 27.01160156 9.22976562 27.02320312 9.86328125 27.03515625 C11.07564453 27.04869141 11.07564453 27.04869141 12.3125 27.0625 C13.11300781 27.07410156 13.91351563 27.08570312 14.73828125 27.09765625 C17.16861334 27.09657855 17.16861334 27.09657855 20 26 C21.15941038 29.47823115 20.70820884 31.45895578 20 35 C13.4710825 36.74104467 6.5447777 36.47257498 0 35 C-1.86666667 3.73333333 -1.86666667 3.73333333 0 0 Z " fill="#B89F74" transform="translate(60,55)"/>
<path d="M0 0 C0.99 0 1.98 0 3 0 C3 0.66 3 1.32 3 2 C2.34 2 1.68 2 1 2 C1.0721875 2.64324219 1.144375 3.28648438 1.21875 3.94921875 C1.97577262 11.31967507 2.10595877 18.59465929 2 26 C-1.71875 28.046875 -1.71875 28.046875 -4.25 27.625 C-5.11625 27.315625 -5.11625 27.315625 -6 27 C-7.16063604 22.74433453 -6.76173392 19.3164922 -6 15 C-4.02 15 -2.04 15 0 15 C0 10.05 0 5.1 0 0 Z " fill="#C9AA70" transform="translate(121,63)"/>
<path d="M0 0 C0.66 0.33 1.32 0.66 2 1 C2 2.98 2 4.96 2 7 C4.31 7.33 6.62 7.66 9 8 C9.33 6.35 9.66 4.7 10 3 C10.66 3.33 11.32 3.66 12 4 C12.4140625 6.06640625 12.4140625 6.06640625 12.625 8.5625 C12.69976562 9.38878906 12.77453125 10.21507813 12.8515625 11.06640625 C12.90054688 11.70449219 12.94953125 12.34257813 13 13 C12.360625 13.12375 11.72125 13.2475 11.0625 13.375 C10.381875 13.58125 9.70125 13.7875 9 14 C8.67 14.66 8.34 15.32 8 16 C4.5625 14.6875 4.5625 14.6875 1 13 C0.67 12.01 0.34 11.02 0 10 C-0.66 9.67 -1.32 9.34 -2 9 C-1.34 6.03 -0.68 3.06 0 0 Z " fill="#9B7135" transform="translate(148,106)"/>
<path d="M0 0 C3.63 0 7.26 0 11 0 C6.83836351 9.5472837 6.83836351 9.5472837 2.875 11.6875 C0 12 0 12 -3 11 C-3 8.69 -3 6.38 -3 4 C-2.34 3.67 -1.68 3.34 -1 3 C-0.67 2.01 -0.34 1.02 0 0 Z " fill="#2C2C2A" transform="translate(271,106)"/>
<path d="M0 0 C0 1.32 0 2.64 0 4 C-1.65 4.33 -3.3 4.66 -5 5 C-5 5.66 -5 6.32 -5 7 C-6.26607607 7.53229326 -7.53810412 8.05044544 -8.8125 8.5625 C-9.52019531 8.85253906 -10.22789062 9.14257812 -10.95703125 9.44140625 C-13 10 -13 10 -16 9 C-16 9.66 -16 10.32 -16 11 C-17.65 10.67 -19.3 10.34 -21 10 C-20.67 8.68 -20.34 7.36 -20 6 C-19.34 6 -18.68 6 -18 6 C-18 5.01 -18 4.02 -18 3 C-14.7 2.34 -11.4 1.68 -8 1 C-8 1.99 -8 2.98 -8 4 C-7.05125 3.34 -6.1025 2.68 -5.125 2 C-2 0 -2 0 0 0 Z " fill="#49443E" transform="translate(282,117)"/>
<path d="M0 0 C0.99 0 1.98 0 3 0 C3.33 0.99 3.66 1.98 4 3 C3.34 3 2.68 3 2 3 C2 6.3 2 9.6 2 13 C3.98 12.67 5.96 12.34 8 12 C8 13.98 8 15.96 8 18 C8.99 18.33 9.98 18.66 11 19 C11 19.66 11 20.32 11 21 C7.62537285 20.45276317 5.91765 19.9451 3 18 C2.67 19.32 2.34 20.64 2 22 C1.01 22 0.02 22 -1 22 C-1.02700675 19.08327116 -1.04684237 16.16679323 -1.0625 13.25 C-1.07087891 12.425 -1.07925781 11.6 -1.08789062 10.75 C-1.09111328 9.95078125 -1.09433594 9.1515625 -1.09765625 8.328125 C-1.10289307 7.5949707 -1.10812988 6.86181641 -1.11352539 6.10644531 C-0.9975109 3.9538151 -0.59073271 2.0685865 0 0 Z " fill="#9A641B" transform="translate(51,98)"/>
<path d="M0 0 C2.31 0 4.62 0 7 0 C7 2.31 7 4.62 7 7 C9.475 7.99 9.475 7.99 12 9 C12 9.33 12 9.66 12 10 C8.7 10 5.4 10 2 10 C2 13.96 2 17.92 2 22 C2.99 22.33 3.98 22.66 5 23 C3.35 22.67 1.7 22.34 0 22 C0 14.74 0 7.48 0 0 Z " fill="#BA9963" transform="translate(110,98)"/>
<path d="M0 0 C2.97 0.495 2.97 0.495 6 1 C5.33333333 3 4.66666667 5 4 7 C3.9081723 8.44567986 3.86933402 9.89515828 3.8671875 11.34375 C3.86589844 12.17777344 3.86460937 13.01179688 3.86328125 13.87109375 C3.86714844 14.73863281 3.87101563 15.60617188 3.875 16.5 C3.87113281 17.36753906 3.86726562 18.23507813 3.86328125 19.12890625 C3.86457031 19.96292969 3.86585938 20.79695313 3.8671875 21.65625 C3.86831543 22.41744141 3.86944336 23.17863281 3.87060547 23.96289062 C3.9258285 26.20324188 3.9258285 26.20324188 5 29 C6.97536745 28.65213292 6.97536745 28.65213292 9 28 C9.33 27.34 9.66 26.68 10 26 C10.66 26 11.32 26 12 26 C12.125 28.375 12.125 28.375 12 31 C11.34 31.66 10.68 32.32 10 33 C7.99453311 32.70131344 5.99422795 32.36628677 4 32 C2.515 32.495 2.515 32.495 1 33 C-2.64285714 32.35714286 -2.64285714 32.35714286 -4 31 C-3.71269945 28.66055264 -3.38063221 26.3260857 -3 24 C-2.731875 24.61875 -2.46375 25.2375 -2.1875 25.875 C-1.04443152 28.2995233 -1.04443152 28.2995233 2 30 C1.86138974 25.56224325 1.71288136 21.12487223 1.5625 16.6875 C1.52318359 15.42486328 1.48386719 14.16222656 1.44335938 12.86132812 C1.38051758 11.04858398 1.38051758 11.04858398 1.31640625 9.19921875 C1.27974854 8.08377686 1.24309082 6.96833496 1.20532227 5.8190918 C1.11068791 2.92126429 1.11068791 2.92126429 0 0 Z " fill="#B18F58" transform="translate(157,58)"/>
<path d="M0 0 C2.31 0 4.62 0 7 0 C6.67 2.31 6.34 4.62 6 7 C7.32 7 8.64 7 10 7 C10 5.02 10 3.04 10 1 C10.99 1.66 11.98 2.32 13 3 C12.835 3.721875 12.67 4.44375 12.5 5.1875 C12.02412881 7.86427545 11.922557 10.28949487 12 13 C11.01 13.495 11.01 13.495 10 14 C10 12.02 10 10.04 10 8 C8.68 8 7.36 8 6 8 C6.33 10.31 6.66 12.62 7 15 C4.69 15 2.38 15 0 15 C0 10.05 0 5.1 0 0 Z " fill="#817B6D" transform="translate(274,27)"/>
<path d="M0 0 C0.33 0.66 0.66 1.32 1 2 C1.66 2 2.32 2 3 2 C2.67 2.66 2.34 3.32 2 4 C1.84655791 5.88472859 1.75040429 7.77427874 1.68359375 9.6640625 C1.64169922 10.78554687 1.59980469 11.90703125 1.55664062 13.0625 C1.49766602 14.8259375 1.49766602 14.8259375 1.4375 16.625 C1.39431641 17.80835937 1.35113281 18.99171875 1.30664062 20.2109375 C1.20032574 23.14050328 1.09829358 26.07015588 1 29 C-0.65 28.67 -2.3 28.34 -4 28 C-4 22.72 -4 17.44 -4 12 C-3.01 11.67 -2.02 11.34 -1 11 C-0.67 7.37 -0.34 3.74 0 0 Z " fill="#BB914C" transform="translate(136,60)"/>
<path d="M0 0 C0 0.66 0 1.32 0 2 C-13.26074286 11.51860141 -29.6129104 18.52022507 -46 18 C-46 17.67 -46 17.34 -46 17 C-44.86046875 16.7215625 -43.7209375 16.443125 -42.546875 16.15625 C-38.08339038 15.0393957 -33.66499365 13.79391466 -29.25 12.5 C-28.50878906 12.28730469 -27.76757812 12.07460937 -27.00390625 11.85546875 C-23.46189498 10.81893762 -20.2994693 9.66515273 -17 8 C-16.01 8 -15.02 8 -14 8 C-14 7.34 -14 6.68 -14 6 C-12.4221875 5.3503125 -12.4221875 5.3503125 -10.8125 4.6875 C-8.45270359 3.68434768 -6.40094175 2.64056505 -4.1875 1.3125 C-2 0 -2 0 0 0 Z " fill="#C4A56F" transform="translate(295,72)"/>
<path d="M0 0 C0.598125 0.350625 1.19625 0.70125 1.8125 1.0625 C1.8125 1.7225 1.8125 2.3825 1.8125 3.0625 C2.8025 3.0625 3.7925 3.0625 4.8125 3.0625 C4.8125 2.4025 4.8125 1.7425 4.8125 1.0625 C7.16596396 -0.11423198 8.6931033 -0.10373866 11.3125 -0.125 C12.1065625 -0.13917969 12.900625 -0.15335937 13.71875 -0.16796875 C15.8125 0.0625 15.8125 0.0625 17.8125 2.0625 C18.21014263 4.05071313 18.55025349 6.05194339 18.8125 8.0625 C17.8225 8.5575 17.8225 8.5575 16.8125 9.0625 C16.1525 7.0825 15.4925 5.1025 14.8125 3.0625 C12.00485272 2.28823891 12.00485272 2.28823891 8.8125 2.0625 C6.75259522 3.35717677 6.75259522 3.35717677 4.8125 5.0625 C2.83235568 5.78601427 0.83428685 6.46515389 -1.1875 7.0625 C-1.1875 6.0725 -1.1875 5.0825 -1.1875 4.0625 C-2.1775 4.5575 -2.1775 4.5575 -3.1875 5.0625 C-3.84522428 8.09184491 -3.84522428 8.09184491 -4.1875 11.0625 C-3.1975 11.3925 -2.2075 11.7225 -1.1875 12.0625 C-2.8375 12.3925 -4.4875 12.7225 -6.1875 13.0625 C-6.21458567 11.45842672 -6.23393483 9.8542215 -6.25 8.25 C-6.26160156 7.35667969 -6.27320313 6.46335937 -6.28515625 5.54296875 C-6.1875 3.0625 -6.1875 3.0625 -5.1875 0.0625 C-2.1875 -0.9375 -2.1875 -0.9375 0 0 Z " fill="#AC8142" transform="translate(59.1875,97.9375)"/>
<path d="M0 0 C4.95 0 9.9 0 15 0 C15 1.65 15 3.3 15 5 C11.37 5.33 7.74 5.66 4 6 C3.67 7.32 3.34 8.64 3 10 C2.01 10.33 1.02 10.66 0 11 C0 7.37 0 3.74 0 0 Z " fill="#99641D" transform="translate(62,56)"/>
<path d="M0 0 C1.32 0 2.64 0 4 0 C4 0.66 4 1.32 4 2 C3.01 2.33 2.02 2.66 1 3 C-0.1194613 5.8914086 -0.10768197 8.67762612 -0.0625 11.75 C-0.05347656 12.54921875 -0.04445312 13.3484375 -0.03515625 14.171875 C-0.02355469 14.77515625 -0.01195312 15.3784375 0 16 C0.33 15.34 0.66 14.68 1 14 C2.98 14 4.96 14 7 14 C7 13.01 7 12.02 7 11 C7.66 11 8.32 11 9 11 C9 12.98 9 14.96 9 17 C8.01 17 7.02 17 6 17 C6.66 18.32 7.32 19.64 8 21 C6.52093108 21.02689216 5.04172517 21.04634621 3.5625 21.0625 C2.32693359 21.07990234 2.32693359 21.07990234 1.06640625 21.09765625 C-1 21 -1 21 -2 20 C-2.12689057 17.19660365 -2.1852093 14.42882157 -2.1875 11.625 C-2.19974609 10.84382813 -2.21199219 10.06265625 -2.22460938 9.2578125 C-2.23471426 5.32364477 -2.22938367 3.34407551 0 0 Z " fill="#AE8443" transform="translate(146,61)"/>
<path d="M0 0 C3.63 0 7.26 0 11 0 C11 0.66 11 1.32 11 2 C10.01 2 9.02 2 8 2 C8 8.27 8 14.54 8 21 C6.68 21 5.36 21 4 21 C4 14.73 4 8.46 4 2 C2.68 2 1.36 2 0 2 C0 1.34 0 0.68 0 0 Z " fill="#9B661E" transform="translate(37,99)"/>
<path d="M0 0 C0.66 0 1.32 0 2 0 C2.33 0.66 2.66 1.32 3 2 C4.32 1.67 5.64 1.34 7 1 C8.15722657 6.95145093 8.54093989 12.96384797 9 19 C8.01 19.33 7.02 19.66 6 20 C5.34 19.34 4.68 18.68 4 18 C4.66 18 5.32 18 6 18 C6 17.01 6 16.02 6 15 C4.68 14.67 3.36 14.34 2 14 C2.04125 13.05125 2.0825 12.1025 2.125 11.125 C2.34973818 7.89755144 2.34973818 7.89755144 0 6 C0.375 3.875 0.375 3.875 1 2 C0.34 1.67 -0.32 1.34 -1 1 C-0.67 0.67 -0.34 0.34 0 0 Z M4 11 C4.33 11.99 4.66 12.98 5 14 C5 13.01 5 12.02 5 11 C4.67 11 4.34 11 4 11 Z " fill="#A07C49" transform="translate(56,102)"/>
<path d="M0 0 C2.00720923 0.28674418 4.0085944 0.61866701 6 1 C5.71860476 4.65813817 5.43656214 7.31896306 3.4375 10.4375 C-0.14763316 12.73566228 -2.79077755 12.28061483 -7 12 C-4.25 6.125 -4.25 6.125 -2 5 C-1.6278958 3.67696283 -1.29369827 2.34262065 -1 1 C-0.67 0.67 -0.34 0.34 0 0 Z " fill="#373531" transform="translate(286,104)"/>
<path d="M0 0 C0.99 0.66 1.98 1.32 3 2 C2.25 8.625 2.25 8.625 0 12 C0.33 12.66 0.66 13.32 1 14 C-1.0625 15.625 -1.0625 15.625 -4 17 C-7.75 16.375 -7.75 16.375 -11 15 C-11.33 14.01 -11.66 13.02 -12 12 C-7.545 11.505 -7.545 11.505 -3 11 C-3.33 10.01 -3.66 9.02 -4 8 C-3.01 7.67 -2.02 7.34 -1 7 C-1.020625 6.030625 -1.04125 5.06125 -1.0625 4.0625 C-1 1 -1 1 0 0 Z " fill="#976D34" transform="translate(143,105)"/>
<path d="M0 0 C1.125 6.625 1.125 6.625 0 10 C-2.64 10 -5.28 10 -8 10 C-8.66 7.03 -9.32 4.06 -10 1 C-6.52674819 -0.1577506 -3.63932552 -0.06866652 0 0 Z " fill="#2A2A28" transform="translate(251,107)"/>
<path d="M0 0 C0.33 0 0.66 0 1 0 C1 15.84 1 31.68 1 48 C10.53003547 46.67534585 10.53003547 46.67534585 20 45 C18.515 45.495 18.515 45.495 17 46 C17 46.66 17 47.32 17 48 C15.906875 48.144375 14.81375 48.28875 13.6875 48.4375 C10.06877013 48.88288104 10.06877013 48.88288104 7 50 C4.69 50 2.38 50 0 50 C0 33.5 0 17 0 0 Z " fill="#4A4A48" transform="translate(244,37)"/>
<path d="M0 0 C3.40018384 -0.35040062 6.61284938 -0.52559234 10 0 C12.91013636 3.11800325 14 4.72325931 14 9 C12.56138706 8.91253716 11.12402492 8.80434652 9.6875 8.6875 C8.88699219 8.62949219 8.08648437 8.57148437 7.26171875 8.51171875 C4.58492201 7.90608771 3.68140037 7.13250778 2 5 C0.8125 2.3125 0.8125 2.3125 0 0 Z " fill="#2C2C2A" transform="translate(226,108)"/>
<path d="M0 0 C2.0625 1.8125 2.0625 1.8125 3 4 C3 4.99 3 5.98 3 7 C3.31088368 8.67099977 3.64080332 10.33871537 4 12 C4.99 12.33 5.98 12.66 7 13 C6.01 13.33 5.02 13.66 4 14 C3.01 13.01 2.02 12.02 1 11 C1.33 10.01 1.66 9.02 2 8 C1.34 8 0.68 8 0 8 C0 6.02 0 4.04 0 2 C-3.3 2.33 -6.6 2.66 -10 3 C-9.814375 4.27875 -9.62875 5.5575 -9.4375 6.875 C-8.875 10.75 -8.875 10.75 -10 13 C-12.32156597 13.40729228 -14.6568787 13.74438677 -17 14 C-16.34 13.34 -15.68 12.68 -15 12 C-13.68 12 -12.36 12 -11 12 C-11.99 9.03 -12.98 6.06 -14 3 C-9.61892094 -0.39180314 -5.36071727 -0.95026202 0 0 Z " fill="#766A58" transform="translate(251,105)"/>
<path d="M0 0 C1.39895508 -0.0309375 1.39895508 -0.0309375 2.82617188 -0.0625 C3.71755859 -0.06765625 4.60894531 -0.0728125 5.52734375 -0.078125 C6.75892212 -0.09214355 6.75892212 -0.09214355 8.01538086 -0.10644531 C8.69093018 0.01118164 9.36647949 0.12880859 10.0625 0.25 C10.7225 1.24 11.3825 2.23 12.0625 3.25 C4.8025 3.25 -2.4575 3.25 -9.9375 3.25 C-9.9375 5.56 -9.9375 7.87 -9.9375 10.25 C-10.9275 9.59 -11.9175 8.93 -12.9375 8.25 C-10.44857429 -0.87606093 -8.90157155 0.04901072 0 0 Z " fill="#625645" transform="translate(280.9375,21.75)"/>
<path d="M0 0 C0.33 0 0.66 0 1 0 C1.02691685 2.45840605 1.04679802 4.91651882 1.0625 7.375 C1.07087891 8.07367188 1.07925781 8.77234375 1.08789062 9.4921875 C1.11328125 14.7734375 1.11328125 14.7734375 0 17 C-2.31 17 -4.62 17 -7 17 C-6.01 16.34 -5.02 15.68 -4 15 C-3.63539547 12.33346095 -3.63539547 12.33346095 -3.8125 9.375 C-3.83957031 8.37210938 -3.86664063 7.36921875 -3.89453125 6.3359375 C-3.94673828 5.17964844 -3.94673828 5.17964844 -4 4 C-4.99 4 -5.98 4 -7 4 C-7 3.34 -7 2.68 -7 2 C-4.69 2 -2.38 2 0 2 C0 1.34 0 0.68 0 0 Z " fill="#43423D" transform="translate(290,25)"/>
<path d="M0 0 C0.144375 0.598125 0.28875 1.19625 0.4375 1.8125 C0.8872439 3.56150404 1.42892341 5.28677023 2 7 C2.99 7.33 3.98 7.66 5 8 C5 8.99 5 9.98 5 11 C1.67255773 12.10914742 -0.64561525 12.03211839 -4 11 C-5.8125 9.625 -5.8125 9.625 -7 8 C-7 7.01 -7 6.02 -7 5 C-6.01 4.67 -5.02 4.34 -4 4 C-2.62804426 2.70644173 -1.28817344 1.37701298 0 0 Z " fill="#C29F61" transform="translate(94,77)"/>
<path d="M0 0 C4.29 0 8.58 0 13 0 C13.33 1.65 13.66 3.3 14 5 C13.34 5 12.68 5 12 5 C12 4.01 12 3.02 12 2 C10.68 2 9.36 2 8 2 C6.82712428 8.68531992 6.82712428 8.68531992 9 15 C7.02 15 5.04 15 3 15 C3.33 10.38 3.66 5.76 4 1 C1.525 2.485 1.525 2.485 -1 4 C-0.67 2.68 -0.34 1.36 0 0 Z " fill="#736755" transform="translate(249,39)"/>
<path d="M0 0 C0.125 6.625 0.125 6.625 -1 10 C-2.84765625 10.73046875 -2.84765625 10.73046875 -5.0625 11.1875 C-5.79597656 11.34605469 -6.52945312 11.50460938 -7.28515625 11.66796875 C-7.85105469 11.77753906 -8.41695313 11.88710937 -9 12 C-10 10 -10 10 -10.0625 7.125 C-8.83185753 3.50546333 -8.27330806 3.26458186 -5 1.625 C-1.30081301 0 -1.30081301 0 0 0 Z " fill="#373531" transform="translate(297,90)"/>
<path d="M0 0 C3.0466145 1.01553817 5.31143836 2.20762558 8 4 C8.33 3.34 8.66 2.68 9 2 C9 3.65 9 5.3 9 7 C7.02 7.99 5.04 8.98 3 10 C2.34 9.34 1.68 8.68 1 8 C0.34 8.99 -0.32 9.98 -1 11 C-2 4.375 -2 4.375 -2 1 C-1.34 0.67 -0.68 0.34 0 0 Z " fill="#BE9F66" transform="translate(84,97)"/>
<path d="M0 0 C0.66 0.33 1.32 0.66 2 1 C2 3.97 2 6.94 2 10 C5.93673644 8.68775452 8.22719294 7.08089673 11 4 C10.67 5.65 10.34 7.3 10 9 C9.34 9 8.68 9 8 9 C8 9.99 8 10.98 8 12 C5.04335481 13.4783226 2.25770263 13.06032783 -1 13 C-1.2236337 11.58566794 -1.42826476 10.16832382 -1.625 8.75 C-1.74101563 7.96109375 -1.85703125 7.1721875 -1.9765625 6.359375 C-2.00319395 3.67847541 -1.36592084 2.27305911 0 0 Z " fill="#9E6A21" transform="translate(80,107)"/>
<path d="M0 0 C0.66 0 1.32 0 2 0 C1.96744792 1.98567708 1.93489583 3.97135417 1.90234375 5.95703125 C1.91736783 8.20305461 1.91736783 8.20305461 3 11 C5.01508358 11.73323796 5.01508358 11.73323796 7 12 C6.34 10.35 5.68 8.7 5 7 C6.98 7 8.96 7 11 7 C11 7.99 11 8.98 11 10 C10.34 10 9.68 10 9 10 C9 10.99 9 11.98 9 13 C5.53906866 13.19966912 2.7985497 13.32761013 -0.4375 12 C-2.98547035 8.73859795 -2.38667164 6.06005224 -2 2 C-1.34 1.34 -0.68 0.68 0 0 Z " fill="#706555" transform="translate(224,55)"/>
<path d="M0 0 C2.26609984 4.53219967 1.92735976 6.17772925 1 11 C-9.55808656 12.33257403 -9.55808656 12.33257403 -14 11 C-14 10.34 -14 9.68 -14 9 C-14.66 8.67 -15.32 8.34 -16 8 C-13.03 8.33 -10.06 8.66 -7 9 C-7.33 8.01 -7.66 7.02 -8 6 C-8.66 5.67 -9.32 5.34 -10 5 C-9 3 -9 3 -5 1 C-5 3.97 -5 6.94 -5 10 C-3.35 10 -1.7 10 0 10 C0 6.7 0 3.4 0 0 Z " fill="#D0BA90" transform="translate(106,79)"/>
<path d="M0 0 C2.75 -0.3125 2.75 -0.3125 6 0 C10 4 10 4 10 7 C10.66 7 11.32 7 12 7 C12 7.66 12 8.32 12 9 C8.62294375 8.46274105 5.303314 7.88935377 2 7 C1.34 4.69 0.68 2.38 0 0 Z " fill="#363531" transform="translate(216,107)"/>
<path d="M0 0 C0.66 0.33 1.32 0.66 2 1 C2 7.6 2 14.2 2 21 C1.01 21 0.02 21 -1 21 C-1.02888146 17.68751813 -1.04675799 14.37506833 -1.0625 11.0625 C-1.07087891 10.11697266 -1.07925781 9.17144531 -1.08789062 8.19726562 C-1.09111328 7.29814453 -1.09433594 6.39902344 -1.09765625 5.47265625 C-1.10289307 4.64000244 -1.10812988 3.80734863 -1.11352539 2.94946289 C-1 1 -1 1 0 0 Z " fill="#625645" transform="translate(269,33)"/>
<path d="M0 0 C2.64 0 5.28 0 8 0 C7.875 1.875 7.875 1.875 7 4 C3.9375 5.25 3.9375 5.25 1 6 C1 6.66 1 7.32 1 8 C2.65 8.33 4.3 8.66 6 9 C6.33 10.32 6.66 11.64 7 13 C6.01 13.495 6.01 13.495 5 14 C5 12.68 5 11.36 5 10 C2.69 10 0.38 10 -2 10 C-2 7.69 -2 5.38 -2 3 C0.31 3 2.62 3 5 3 C5 2.34 5 1.68 5 1 C3.35 1 1.7 1 0 1 C0 0.67 0 0.34 0 0 Z " fill="#957240" transform="translate(179,98)"/>
<path d="M0 0 C2.475 0.495 2.475 0.495 5 1 C5 0.67 5 0.34 5 0 C7.97 0.33 10.94 0.66 14 1 C14.66 2.65 15.32 4.3 16 6 C12.95613276 6.08226668 10.92824652 5.97608217 8 5 C7.175 4.896875 6.35 4.79375 5.5 4.6875 C2.41706288 3.83969229 1.63768188 2.67200728 0 0 Z " fill="#2C2C2A" transform="translate(228,119)"/>
<path d="M0 0 C5.14953497 7.72430245 3.50513954 22.06077992 2 31 C1.34 31.33 0.68 31.66 0 32 C0 21.44 0 10.88 0 0 Z " fill="#B2AB95" transform="translate(239,50)"/>
<path d="M0 0 C2.64 0 5.28 0 8 0 C7.01 2.97 6.02 5.94 5 9 C2.03 8.505 2.03 8.505 -1 8 C-0.67 5.36 -0.34 2.72 0 0 Z " fill="#353331" transform="translate(255,119)"/>
<path d="M0 0 C0.66 0 1.32 0 2 0 C3.15941038 3.47823115 2.70820884 5.45895578 2 9 C-0.375 9.625 -0.375 9.625 -3 10 C-3.66 9.34 -4.32 8.68 -5 8 C-3.68 8 -2.36 8 -1 8 C-1 6.68 -1 5.36 -1 4 C-2.093125 4.020625 -3.18625 4.04125 -4.3125 4.0625 C-8 4 -8 4 -11 3 C-10.67 2.34 -10.34 1.68 -10 1 C-9.36191406 1.01160156 -8.72382812 1.02320312 -8.06640625 1.03515625 C-7.24011719 1.04417969 -6.41382812 1.05320312 -5.5625 1.0625 C-4.32693359 1.07990234 -4.32693359 1.07990234 -3.06640625 1.09765625 C-1.00836062 1.23267348 -1.00836062 1.23267348 0 0 Z " fill="#C8AC7C" transform="translate(78,81)"/>
<path d="M0 0 C0.66 0 1.32 0 2 0 C2 0.66 2 1.32 2 2 C3.98 2 5.96 2 8 2 C7.67 2.99 7.34 3.98 7 5 C6.01 4.67 5.02 4.34 4 4 C4 5.98 4 7.96 4 10 C3.01 10.495 3.01 10.495 2 11 C1.01 10.67 0.02 10.34 -1 10 C-1.02689216 8.52093108 -1.04634621 7.04172517 -1.0625 5.5625 C-1.07410156 4.73878906 -1.08570312 3.91507812 -1.09765625 3.06640625 C-1 1 -1 1 0 0 Z " fill="#946A2E" transform="translate(113,110)"/>
<path d="M0 0 C1.98 0 3.96 0 6 0 C6 0.99 6 1.98 6 3 C6.5775 2.484375 7.155 1.96875 7.75 1.4375 C10 0 10 0 12.25 0.3125 C12.8275 0.539375 13.405 0.76625 14 1 C13.030625 1.61875 12.06125 2.2375 11.0625 2.875 C7.97164638 4.65678846 7.97164638 4.65678846 7 7 C6.96944808 9.82823491 7.06717294 12.64205732 7.16015625 15.46875 C7 18 7 18 5 20 C4.67 14.06 4.34 8.12 4 2 C2.02 2.99 2.02 2.99 0 4 C0 2.68 0 1.36 0 0 Z " fill="#BC9E6D" transform="translate(121,98)"/>
<path d="M0 0 C1.32 0 2.64 0 4 0 C5.38226016 2.76452033 5.09525387 5.0461363 5.0625 8.125 C5.05347656 9.22070312 5.04445312 10.31640625 5.03515625 11.4453125 C5.02355469 12.28835937 5.01195312 13.13140625 5 14 C4.01 14.495 4.01 14.495 3 15 C2.67 13.02 2.34 11.04 2 9 C1.01 9.495 1.01 9.495 0 10 C0 6.7 0 3.4 0 0 Z " fill="#C09E66" transform="translate(147,98)"/>
<path d="M0 0 C0 0.99 0 1.98 0 3 C-4.22857143 7 -4.22857143 7 -8 7 C-8 7.66 -8 8.32 -8 9 C-9.32 8.67 -10.64 8.34 -12 8 C-11.67 7.01 -11.34 6.02 -11 5 C-10.34 5 -9.68 5 -9 5 C-9 4.01 -9 3.02 -9 2 C-6.03 1.34 -3.06 0.68 0 0 Z " fill="#343432" transform="translate(273,118)"/>
<path d="M0 0 C3.63 0 7.26 0 11 0 C11 0.33 11 0.66 11 1 C8.36 1 5.72 1 3 1 C3 1.66 3 2.32 3 3 C4.32 3 5.64 3 7 3 C7 9.27 7 15.54 7 22 C7.99 22.33 8.98 22.66 10 23 C8.68 23 7.36 23 6 23 C5.98582031 21.80761719 5.97164062 20.61523438 5.95703125 19.38671875 C5.9101317 17.82027373 5.8618843 16.25386865 5.8125 14.6875 C5.80669922 13.90181641 5.80089844 13.11613281 5.79492188 12.30664062 C5.71018781 10.09414001 5.59099247 8.13543761 5 6 C2.56111754 4.10204633 2.56111754 4.10204633 0 3 C0 2.01 0 1.02 0 0 Z " fill="#9D7134" transform="translate(34,98)"/>
<path d="M0 0 C0.66 0 1.32 0 2 0 C2.66 1.32 3.32 2.64 4 4 C3.34 4 2.68 4 2 4 C2.33 5.65 2.66 7.3 3 9 C4.32 9 5.64 9 7 9 C7 8.01 7 7.02 7 6 C7.66 6.33 8.32 6.66 9 7 C8.67 8.65 8.34 10.3 8 12 C5.69 12.66 3.38 13.32 1 14 C-0.20568053 9.32798795 -0.09382426 4.78503708 0 0 Z " fill="#C0A97E" transform="translate(160,105)"/>
<path d="M0 0 C1 2 1 2 1.4375 5.5 C1.6570296 9.04766003 1.6570296 9.04766003 4 11 C2.02 11.99 2.02 11.99 0 13 C-3.12270126 10.48169253 -3.94523098 9.2738451 -4.75 5.25 C-4.8325 4.1775 -4.915 3.105 -5 2 C-4.360625 1.855625 -3.72125 1.71125 -3.0625 1.5625 C-1.02454854 1.18992819 -1.02454854 1.18992819 0 0 Z " fill="#9B7134" transform="translate(67,100)"/>
<path d="M0 0 C0 1.65 0 3.3 0 5 C-2.31 4.01 -4.62 3.02 -7 2 C-6.73606499 5.43230448 -6.73606499 5.43230448 -6 9 C-5.01 9.66 -4.02 10.32 -3 11 C-3 11.99 -3 12.98 -3 14 C-4.65 13.67 -6.3 13.34 -8 13 C-9.3271261 9.0186217 -9.06915913 5.14954773 -9 1 C-6.04335481 -0.4783226 -3.25770263 -0.06032783 0 0 Z " fill="#343432" transform="translate(234,53)"/>
<path d="M0 0 C0 5.94 0 11.88 0 18 C-0.33 18 -0.66 18 -1 18 C-1 12.39 -1 6.78 -1 1 C-2.32 1 -3.64 1 -5 1 C-5 4.3 -5 7.6 -5 11 C-5.66 10.67 -6.32 10.34 -7 10 C-8.48932039 2.89708738 -8.48932039 2.89708738 -6.875 -0.0625 C-5 -1 -5 -1 0 0 Z M-7 2 C-6 4 -6 4 -6 4 Z " fill="#9C6D2D" transform="translate(183,55)"/>
<path d="M0 0 C0.99 0.33 1.98 0.66 3 1 C2.34 3.31 1.68 5.62 1 8 C2.32 8.33 3.64 8.66 5 9 C4.01 9.33 3.02 9.66 2 10 C1.34 9.67 0.68 9.34 0 9 C0 9.66 0 10.32 0 11 C-0.66 11 -1.32 11 -2 11 C-2.33 11.99 -2.66 12.98 -3 14 C-3.66 14 -4.32 14 -5 14 C-5 14.99 -5 15.98 -5 17 C-5.66 16.67 -6.32 16.34 -7 16 C-6.39816251 13.97954558 -5.72693904 11.97888961 -5 10 C-4.34 9.67 -3.68 9.34 -3 9 C-2.64080332 7.33871537 -2.31088368 5.67099977 -2 4 C-0.9375 1.6875 -0.9375 1.6875 0 0 Z M-2 8 C-1 10 -1 10 -1 10 Z " fill="#8F826A" transform="translate(267,109)"/>
<path d="M0 0 C1.98 0 3.96 0 6 0 C7.04449911 3.13349732 6.93423645 3.98968256 6 7 C1.25 6.25 1.25 6.25 -1 4 C-0.625 1.875 -0.625 1.875 0 0 Z " fill="#2E2E2C" transform="translate(246,119)"/>
<path d="M0 0 C6.6 0 13.2 0 20 0 C20.33 0.66 20.66 1.32 21 2 C10.11 2.495 10.11 2.495 -1 3 C-0.67 2.01 -0.34 1.02 0 0 Z " fill="#67553D" transform="translate(219,47)"/>
<path d="M0 0 C0.66 0.33 1.32 0.66 2 1 C2.02725341 2.7290774 2.04650987 4.45828176 2.0625 6.1875 C2.07410156 7.15042969 2.08570313 8.11335938 2.09765625 9.10546875 C2.00486622 11.85576513 1.62111685 14.32479591 1 17 C0.34 17 -0.32 17 -1 17 C-1.02684679 14.35409986 -1.04676357 11.70846904 -1.0625 9.0625 C-1.07087891 8.30775391 -1.07925781 7.55300781 -1.08789062 6.77539062 C-1.09652441 4.85005687 -1.05224333 2.92464419 -1 1 C-0.67 0.67 -0.34 0.34 0 0 Z " fill="#8B6737" transform="translate(161,61)"/>
<path d="M0 0 C0.66 0.33 1.32 0.66 2 1 C1.67 2.32 1.34 3.64 1 5 C-1.31 5 -3.62 5 -6 5 C-5.67 5.99 -5.34 6.98 -5 8 C-4.21625 8.103125 -3.4325 8.20625 -2.625 8.3125 C0 9 0 9 2 12 C1.01 12.495 1.01 12.495 0 13 C-0.33 12.34 -0.66 11.68 -1 11 C-4.02934491 10.34227572 -4.02934491 10.34227572 -7 10 C-7 7.69 -7 5.38 -7 3 C-4.69 3 -2.38 3 0 3 C0 2.01 0 1.02 0 0 Z " fill="#BFA67A" transform="translate(104,98)"/>
<path d="M0 0 C0.7940625 -0.01417969 1.588125 -0.02835937 2.40625 -0.04296875 C4.5 0.1875 4.5 0.1875 6.5 2.1875 C6.89764263 4.17571313 7.23775349 6.17694339 7.5 8.1875 C6.51 8.6825 6.51 8.6825 5.5 9.1875 C4.84 7.2075 4.18 5.2275 3.5 3.1875 C0.69235272 2.41323891 0.69235272 2.41323891 -2.5 2.1875 C-4.69038423 3.55918238 -4.69038423 3.55918238 -6.5 5.1875 C-7.49 5.1875 -8.48 5.1875 -9.5 5.1875 C-9.5 4.5275 -9.5 3.8675 -9.5 3.1875 C-8.51 3.1875 -7.52 3.1875 -6.5 3.1875 C-6.5 2.5275 -6.5 1.8675 -6.5 1.1875 C-4.14653604 0.01076802 -2.6193967 0.02126134 0 0 Z " fill="#BA955D" transform="translate(70.5,97.8125)"/>
<path d="M0 0 C0.66 0.33 1.32 0.66 2 1 C-0.67923094 4.30207798 -4.22931903 5.57301014 -8.0625 7.125 C-9.32435293 7.64811395 -10.58607739 8.17153793 -11.84765625 8.6953125 C-12.88792969 9.12585938 -13.92820312 9.55640625 -15 10 C-15.99 10.495 -15.99 10.495 -17 11 C-17.66 10.34 -18.32 9.68 -19 9 C-18.29875 8.68546875 -17.5975 8.3709375 -16.875 8.046875 C-12.33882438 6.00066534 -7.84125695 3.94447419 -3.4375 1.625 C-2.303125 1.08875 -1.16875 0.5525 0 0 Z " fill="#A4865A" transform="translate(297,85)"/>
<path d="M0 0 C0.33 0 0.66 0 1 0 C1 1.98 1 3.96 1 6 C-5.82147102 7.43609916 -13.21283273 7.80991127 -20 6 C-20 5.67 -20 5.34 -20 5 C-10.1 4.505 -10.1 4.505 0 4 C0 2.68 0 1.36 0 0 Z " fill="#5E564B" transform="translate(239,82)"/>
<path d="M0 0 C0.99 0 1.98 0 3 0 C3 4.95 3 9.9 3 15 C1.35 14.67 -0.3 14.34 -2 14 C-1.77183594 13.40832031 -1.54367188 12.81664063 -1.30859375 12.20703125 C0.9576998 6.21347039 0.9576998 6.21347039 0 0 Z " fill="#BA9E72" transform="translate(98,62)"/>
<path d="M0 0 C0.66 0.66 1.32 1.32 2 2 C2.99 1.67 3.98 1.34 5 1 C5.33 3.97 5.66 6.94 6 10 C4.02 9.34 2.04 8.68 0 8 C0 5.36 0 2.72 0 0 Z " fill="#A97F3F" transform="translate(120,99)"/>
<path d="M0 0 C2.31 0.66 4.62 1.32 7 2 C6.34 3.32 5.68 4.64 5 6 C3.68 6 2.36 6 1 6 C1.33 6.66 1.66 7.32 2 8 C-0.9375 7.1875 -0.9375 7.1875 -4 6 C-4.33 5.01 -4.66 4.02 -5 3 C-3.02 2.67 -1.04 2.34 1 2 C0.67 1.34 0.34 0.68 0 0 Z " fill="#5F594F" transform="translate(229,115)"/>
<path d="M0 0 C0.33 0 0.66 0 1 0 C0.94199219 0.65226562 0.88398438 1.30453125 0.82421875 1.9765625 C0.47094873 8.29443216 0.47094873 8.29443216 3.5 13.625 C4.7375 14.800625 4.7375 14.800625 6 16 C2.42188369 16 1.73324619 15.13534858 -1 13 C-1.99 12.67 -2.98 12.34 -4 12 C-3.505 11.113125 -3.01 10.22625 -2.5 9.3125 C-1.04078698 6.09007125 -0.80346706 4.43932637 -1 1 C-0.67 0.67 -0.34 0.34 0 0 Z " fill="#A58555" transform="translate(146,105)"/>
<path d="M0 0 C0.33 0.33 0.66 0.66 1 1 C0.91062197 2.52519276 0.75462854 4.04681929 0.5625 5.5625 C0.46066406 6.38878906 0.35882813 7.21507813 0.25390625 8.06640625 C0.12822266 9.02353516 0.12822266 9.02353516 0 10 C-0.66 10 -1.32 10 -2 10 C-2 7.36 -2 4.72 -2 2 C-3.98 2.99 -3.98 2.99 -6 4 C-6 2.68 -6 1.36 -6 0 C-3.49749232 -1.25125384 -2.59701335 -0.83774624 0 0 Z " fill="#B49A6C" transform="translate(73,102)"/>
<path d="M0 0 C0.99 0 1.98 0 3 0 C3.33 0.99 3.66 1.98 4 3 C3.34 3 2.68 3 2 3 C1.34 8.61 0.68 14.22 0 20 C-0.33 20 -0.66 20 -1 20 C-1.02703562 17.41659616 -1.04685611 14.83347692 -1.0625 12.25 C-1.07087891 11.52039063 -1.07925781 10.79078125 -1.08789062 10.0390625 C-1.10391684 6.51329442 -0.95292713 3.38965084 0 0 Z " fill="#9E6B23" transform="translate(51,98)"/>
<path d="M0 0 C0.33 0 0.66 0 1 0 C1 3.3 1 6.6 1 10 C-3 11 -3 11 -6 10 C-5.34 10 -4.68 10 -4 10 C-4 8.35 -4 6.7 -4 5 C-3.01 4.67 -2.02 4.34 -1 4 C-0.26676204 1.98491642 -0.26676204 1.98491642 0 0 Z " fill="#B88D48" transform="translate(105,67)"/>
<path d="M0 0 C1.32 0 2.64 0 4 0 C4 0.66 4 1.32 4 2 C3.01 2.33 2.02 2.66 1 3 C-0.1194613 5.8914086 -0.10768197 8.67762612 -0.0625 11.75 C-0.05347656 12.54921875 -0.04445312 13.3484375 -0.03515625 14.171875 C-0.02355469 14.77515625 -0.01195312 15.3784375 0 16 C-0.66 16 -1.32 16 -2 16 C-2.05402274 13.89611431 -2.09280256 11.79183286 -2.125 9.6875 C-2.14820313 8.51574219 -2.17140625 7.34398438 -2.1953125 6.13671875 C-2 3 -2 3 0 0 Z " fill="#B29871" transform="translate(146,61)"/>
<path d="M0 0 C0.66 0 1.32 0 2 0 C1.31034483 8.27586207 1.31034483 8.27586207 -2 12 C-2.33 12.99 -2.66 13.98 -3 15 C-5.5 13.625 -5.5 13.625 -8 12 C-8 11.34 -8 10.68 -8 10 C-4.535 9.505 -4.535 9.505 -1 9 C-0.67 6.03 -0.34 3.06 0 0 Z " fill="#81745F" transform="translate(297,91)"/>
<path d="M0 0 C0.66 0 1.32 0 2 0 C2 0.66 2 1.32 2 2 C2.65226562 1.98839844 3.30453125 1.97679688 3.9765625 1.96484375 C8.7761914 1.91529006 13.27784685 2.00586249 18 3 C17.67 3.66 17.34 4.32 17 5 C15.10448978 5.05441656 13.2085208 5.09298035 11.3125 5.125 C10.25675781 5.14820312 9.20101562 5.17140625 8.11328125 5.1953125 C4.97748141 4.99858729 2.82354627 4.33057654 0 3 C0 2.01 0 1.02 0 0 Z " fill="#B19565" transform="translate(41,86)"/>
<path d="M0 0 C3.3 0 6.6 0 10 0 C9.34 0.66 8.68 1.32 8 2 C8.66 2.33 9.32 2.66 10 3 C9.67 4.32 9.34 5.64 9 7 C9 6.01 9 5.02 9 4 C7.02 4 5.04 4 3 4 C3 3.34 3 2.68 3 2 C2.01 2.33 1.02 2.66 0 3 C0 2.01 0 1.02 0 0 Z " fill="#AE803C" transform="translate(112,108)"/>
<path d="M0 0 C0.99 0.66 1.98 1.32 3 2 C2.25 8.75 2.25 8.75 0 11 C-2 9 -2 9 -2.01171875 7.08984375 C-1.11111111 1.11111111 -1.11111111 1.11111111 0 0 Z " fill="#A37129" transform="translate(143,105)"/>
<path d="M0 0 C2.0625 0.4375 2.0625 0.4375 4 1 C3.01 1 2.02 1 1 1 C1 1.66 1 2.32 1 3 C-0.6396875 3.2165625 -0.6396875 3.2165625 -2.3125 3.4375 C-5.93122987 3.88288104 -5.93122987 3.88288104 -9 5 C-11.33299825 5.03954234 -13.66708189 5.04401732 -16 5 C-16 4.67 -16 4.34 -16 4 C-14.02 4 -12.04 4 -10 4 C-10 3.34 -10 2.68 -10 2 C-9.04287109 1.90912109 -9.04287109 1.90912109 -8.06640625 1.81640625 C-7.24011719 1.73261719 -6.41382813 1.64882812 -5.5625 1.5625 C-4.73878906 1.48128906 -3.91507812 1.40007812 -3.06640625 1.31640625 C-1.01337975 1.21069185 -1.01337975 1.21069185 0 0 Z " fill="#7A6D57" transform="translate(260,82)"/>
<path d="M0 0 C3.3 0 6.6 0 10 0 C9.67 2.31 9.34 4.62 9 7 C8.67 7 8.34 7 8 7 C8 5.02 8 3.04 8 1 C6.35 1.33 4.7 1.66 3 2 C2.71125 2.969375 2.4225 3.93875 2.125 4.9375 C1 8 1 8 -1 9 C-0.67 6.03 -0.34 3.06 0 0 Z " fill="#CEBA90" transform="translate(144,82)"/>
<path d="M0 0 C0.33 0 0.66 0 1 0 C1 1.98 1 3.96 1 6 C1.75925781 5.69964844 2.51851563 5.39929688 3.30078125 5.08984375 C4.29464844 4.70957031 5.28851563 4.32929687 6.3125 3.9375 C7.79169922 3.36322266 7.79169922 3.36322266 9.30078125 2.77734375 C12 2 12 2 15 3 C13.23002526 3.81436868 11.45898848 4.6264294 9.6875 5.4375 C8.70136719 5.88996094 7.71523438 6.34242187 6.69921875 6.80859375 C4 8 4 8 1 9 C0 8 0 8 -0.09765625 6.15234375 C-0.06510417 4.1015625 -0.03255208 2.05078125 0 0 Z " fill="#665F52" transform="translate(270,72)"/>
<path d="M0 0 C0.66 0.66 1.32 1.32 2 2 C-0.04698414 4.04698414 -4.30411241 3.70045693 -7 4 C-7.99 7.465 -7.99 7.465 -9 11 C-8.01 11.33 -7.02 11.66 -6 12 C-7.32 12 -8.64 12 -10 12 C-10 8.7 -10 5.4 -10 2 C-6.7 2 -3.4 2 0 2 C0 1.34 0 0.68 0 0 Z " fill="#AC8850" transform="translate(76,73)"/>
<path d="M0 0 C0.66 0 1.32 0 2 0 C3.125 6.625 3.125 6.625 2 10 C2.66 10.33 3.32 10.66 4 11 C4 12.65 4 14.3 4 16 C2.68 15.34 1.36 14.68 0 14 C0 9.38 0 4.76 0 0 Z " fill="#B59056" transform="translate(114,63)"/>
<path d="M0 0 C0.33 0 0.66 0 1 0 C1 4.95 1 9.9 1 15 C0.34 15 -0.32 15 -1 15 C-1.22134176 12.87631556 -1.42670007 10.75095976 -1.625 8.625 C-1.74101563 7.44164063 -1.85703125 6.25828125 -1.9765625 5.0390625 C-1.98429687 4.03617187 -1.99203125 3.03328125 -2 2 C-1.34 1.34 -0.68 0.68 0 0 Z " fill="#A57430" transform="translate(78,105)"/>
<path d="M0 0 C0.66 0.33 1.32 0.66 2 1 C1.67 2.65 1.34 4.3 1 6 C2.65 6 4.3 6 6 6 C6 7.98 6 9.96 6 12 C5.01 12.33 4.02 12.66 3 13 C3 12.01 3 11.02 3 10 C2.319375 9.21625 1.63875 8.4325 0.9375 7.625 C-1 5 -1 5 -0.75 2.1875 C-0.5025 1.465625 -0.255 0.74375 0 0 Z " fill="#B89967" transform="translate(48,71)"/>
<path d="M0 0 C1.98 0 3.96 0 6 0 C6 0.99 6 1.98 6 3 C5.34 3 4.68 3 4 3 C4 3.99 4 4.98 4 6 C1.69 6 -0.62 6 -3 6 C-3.33 4.35 -3.66 2.7 -4 1 C-3.01 2.485 -3.01 2.485 -2 4 C0.05925139 4.72382467 0.05925139 4.72382467 2 5 C1.34 3.35 0.68 1.7 0 0 Z " fill="#787064" transform="translate(229,62)"/>
<path d="M0 0 C0.33 0 0.66 0 1 0 C1 1.98 1 3.96 1 6 C0.67 5.01 0.34 4.02 0 3 C-1.010625 3.66 -2.02125 4.32 -3.0625 5 C-6.78062891 7.15499716 -9.68915491 7.35190572 -14 7 C-14 6.34 -14 5.68 -14 5 C-10.7 4.67 -7.4 4.34 -4 4 C-4 3.01 -4 2.02 -4 1 C-2.68 1.33 -1.36 1.66 0 2 C0 1.34 0 0.68 0 0 Z " fill="#907145" transform="translate(92,115)"/>
<path d="M0 0 C2.7865517 2.7865517 2.65662895 5.15424427 3 9 C2.67 9.66 2.34 10.32 2 11 C-0.32156597 11.40729228 -2.6568787 11.74438677 -5 12 C-4.34 11.34 -3.68 10.68 -3 10 C-1.68 10 -0.36 10 1 10 C0.01 7.03 -0.98 4.06 -2 1 C-1.34 0.67 -0.68 0.34 0 0 Z " fill="#8F7E63" transform="translate(239,107)"/>
<path d="M0 0 C0.66 0.33 1.32 0.66 2 1 C2 2.98 2 4.96 2 7 C2.99 7.33 3.98 7.66 5 8 C4.67 8.66 4.34 9.32 4 10 C3.34 10 2.68 10 2 10 C1.67 9.34 1.34 8.68 1 8 C0.67 8.66 0.34 9.32 0 10 C-0.66 9.67 -1.32 9.34 -2 9 C-1.34 6.03 -0.68 3.06 0 0 Z " fill="#A37431" transform="translate(148,106)"/>
<path d="M0 0 C1.32 0.33 2.64 0.66 4 1 C3.505 1.53625 3.01 2.0725 2.5 2.625 C0.7330035 4.95457351 0.7330035 4.95457351 1 8 C1 11.51716303 0.17554415 12.37121748 -2 15 C-1.85930804 12.87465341 -1.71229079 10.74972471 -1.5625 8.625 C-1.48128906 7.44164063 -1.40007812 6.25828125 -1.31640625 5.0390625 C-1 2 -1 2 0 0 Z " fill="#A98A47" transform="translate(86,60)"/>
<path d="M0 0 C4.29 0 8.58 0 13 0 C13.33 1.65 13.66 3.3 14 5 C13.34 5 12.68 5 12 5 C12 4.01 12 3.02 12 2 C10.39620659 1.94583812 8.79188594 1.90713362 7.1875 1.875 C6.29417969 1.85179687 5.40085938 1.82859375 4.48046875 1.8046875 C1.74597286 1.81714173 1.74597286 1.81714173 -1 4 C-0.67 2.68 -0.34 1.36 0 0 Z " fill="#5B5954" transform="translate(249,39)"/>
<path d="M0 0 C1.485 0.99 1.485 0.99 3 2 C3 2.66 3 3.32 3 4 C4.65 4.33 6.3 4.66 8 5 C8.33 6.32 8.66 7.64 9 9 C8.01 9.495 8.01 9.495 7 10 C7 8.68 7 7.36 7 6 C4.69 6 2.38 6 0 6 C0 4.02 0 2.04 0 0 Z " fill="#B4996C" transform="translate(177,102)"/>
<path d="M0 0 C2.475 0.495 2.475 0.495 5 1 C5 0.67 5 0.34 5 0 C6.65 0 8.3 0 10 0 C9.34 0.66 8.68 1.32 8 2 C8 2.99 8 3.98 8 5 C4.75791433 4.64950425 3.38472296 4.43778819 1.1875 1.9375 C0.795625 1.298125 0.40375 0.65875 0 0 Z " fill="#383837" transform="translate(228,119)"/>
<path d="M0 0 C0 0.99 0 1.98 0 3 C-3.3 3 -6.6 3 -10 3 C-10 2.34 -10 1.68 -10 1 C-6.78548731 -0.60725635 -3.56387464 -0.05748185 0 0 Z " fill="#9C671E" transform="translate(104,117)"/>
<path d="M0 0 C0.66 0.33 1.32 0.66 2 1 C1.67 3.64 1.34 6.28 1 9 C-0.32 9.33 -1.64 9.66 -3 10 C-2.69201674 8.51988629 -2.378482 7.04092675 -2.0625 5.5625 C-1.88847656 4.73878906 -1.71445313 3.91507812 -1.53515625 3.06640625 C-1 1 -1 1 0 0 Z " fill="#9A641B" transform="translate(158,109)"/>
<path d="M0 0 C1.32 0 2.64 0 4 0 C4 1.32 4 2.64 4 4 C-0.95 4 -5.9 4 -11 4 C-11 3.67 -11 3.34 -11 3 C-10.28972656 2.95101562 -9.57945313 2.90203125 -8.84765625 2.8515625 C-7.46900391 2.73941406 -7.46900391 2.73941406 -6.0625 2.625 C-5.14597656 2.55539063 -4.22945313 2.48578125 -3.28515625 2.4140625 C-2.15400391 2.20910156 -2.15400391 2.20910156 -1 2 C-0.67 1.34 -0.34 0.68 0 0 Z " fill="#B88C45" transform="translate(73,85)"/>
<path d="M0 0 C0.33 0 0.66 0 1 0 C1 4.95 1 9.9 1 15 C0.34 14.67 -0.32 14.34 -1 14 C-2.09889421 8.59710348 -2.20409437 5.18610439 0 0 Z " fill="#9F7335" transform="translate(162,73)"/>
<path d="M0 0 C1.2077558 3.62326739 0.54311128 4.64146369 -1 8 C-1.99 8 -2.98 8 -4 8 C-4 6.02 -4 4.04 -4 2 C-2.68 2 -1.36 2 0 2 C0 1.34 0 0.68 0 0 Z " fill="#B08138" transform="translate(105,64)"/>
<path d="M0 0 C2.64 0 5.28 0 8 0 C7.67 1.32 7.34 2.64 7 4 C5.35 4 3.7 4 2 4 C1.34 2.68 0.68 1.36 0 0 Z " fill="#A06D27" transform="translate(131,117)"/>
<path d="M0 0 C0.99 0.33 1.98 0.66 3 1 C3 1.33 3 1.66 3 2 C5.31 2.33 7.62 2.66 10 3 C10 3.99 10 4.98 10 6 C9.29875 5.855625 8.5975 5.71125 7.875 5.5625 C4.92443859 4.98521625 1.96729849 4.48304859 -1 4 C-0.67 2.68 -0.34 1.36 0 0 Z " fill="#8F846E" transform="translate(273,99)"/>
<path d="M0 0 C0 0.99 0 1.98 0 3 C-3.3 3 -6.6 3 -10 3 C-9 1 -9 1 -6.125 -0.1875 C-3 -1 -3 -1 0 0 Z " fill="#373736" transform="translate(285,99)"/>
<path d="M0 0 C0.33 0 0.66 0 1 0 C1.33 4.95 1.66 9.9 2 15 C1.01 15 0.02 15 -1 15 C-1.09038099 9.84828377 -0.84681133 5.08086796 0 0 Z " fill="#3B3A39" transform="translate(218,72)"/>
<path d="M0 0 C0.33 0.99 0.66 1.98 1 3 C-2.3 3 -5.6 3 -9 3 C-9 2.34 -9 1.68 -9 1 C-5.92677456 0.08941469 -3.19902639 -0.08886184 0 0 Z " fill="#B1915C" transform="translate(76,68)"/>
<path d="M0 0 C3.96 0 7.92 0 12 0 C12 0.33 12 0.66 12 1 C8.37 1 4.74 1 1 1 C1 3.31 1 5.62 1 8 C0.01 7.34 -0.98 6.68 -2 6 C-1.34 4.02 -0.68 2.04 0 0 Z " fill="#625E53" transform="translate(270,24)"/>
<path d="M0 0 C2.31 0 4.62 0 7 0 C6.67 2.31 6.34 4.62 6 7 C5.01 6.67 4.02 6.34 3 6 C2.3125 3.9375 2.3125 3.9375 2 2 C1.34 2 0.68 2 0 2 C0 1.34 0 0.68 0 0 Z " fill="#4F4B46" transform="translate(274,27)"/>
<path d="M0 0 C0.99 0.33 1.98 0.66 3 1 C2.67 2.98 2.34 4.96 2 7 C2.99 7.33 3.98 7.66 5 8 C3.35 8.33 1.7 8.66 0 9 C0 6.03 0 3.06 0 0 Z " fill="#BDA274" transform="translate(53,102)"/>
<path d="M0 0 C0.99 0.33 1.98 0.66 3 1 C3 1.99 3 2.98 3 4 C4.65 4 6.3 4 8 4 C7.01 5.485 7.01 5.485 6 7 C4.125 6.6875 4.125 6.6875 2 6 C0 3 0 3 0 0 Z " fill="#AD8954" transform="translate(175,84)"/>
<path d="M0 0 C0.66 0.33 1.32 0.66 2 1 C2 1.99 2 2.98 2 4 C-1 5 -1 5 -4 4 C-4 4.66 -4 5.32 -4 6 C-5.32 5.67 -6.64 5.34 -8 5 C-7.01 5 -6.02 5 -5 5 C-5 4.34 -5 3.68 -5 3 C-2.625 1.3125 -2.625 1.3125 0 0 Z " fill="#635848" transform="translate(270,122)"/>
<path d="M0 0 C2.31 0 4.62 0 7 0 C7 0.66 7 1.32 7 2 C5.824375 2.433125 5.824375 2.433125 4.625 2.875 C1.90328368 3.84912254 1.90328368 3.84912254 0 6 C0 4.02 0 2.04 0 0 Z " fill="#8D6D40" transform="translate(177,111)"/>
<path d="M0 0 C1.670625 0.061875 1.670625 0.061875 3.375 0.125 C3.375 1.775 3.375 3.425 3.375 5.125 C2.385 4.465 1.395 3.805 0.375 3.125 C-1.6146995 2.73486284 -3.61519869 2.39297351 -5.625 2.125 C-3.625 0.125 -3.625 0.125 0 0 Z " fill="#4C4B4A" transform="translate(230.625,52.875)"/>
<path d="M0 0 C2.97 0.33 5.94 0.66 9 1 C9.33 1.99 9.66 2.98 10 4 C6.05272412 4.17942163 3.4019487 4.09350689 0 2 C0 1.34 0 0.68 0 0 Z " fill="#9B8D75" transform="translate(220,114)"/>
<path d="M0 0 C0.66 0.33 1.32 0.66 2 1 C1.67 2.65 1.34 4.3 1 6 C-0.98 6.33 -2.96 6.66 -5 7 C-4.34 5.68 -3.68 4.36 -3 3 C-2.01 3 -1.02 3 0 3 C0 2.01 0 1.02 0 0 Z " fill="#AF9569" transform="translate(167,111)"/>
<path d="M0 0 C1.98 0 3.96 0 6 0 C5.67 1.98 5.34 3.96 5 6 C2.525 5.01 2.525 5.01 0 4 C0.99 3.67 1.98 3.34 3 3 C3 2.34 3 1.68 3 1 C2.01 0.67 1.02 0.34 0 0 Z " fill="#AD8246" transform="translate(45,98)"/>
<path d="M0 0 C0 0.66 0 1.32 0 2 C-1.6796875 3.2890625 -1.6796875 3.2890625 -3.875 4.625 C-4.95394531 5.29402344 -4.95394531 5.29402344 -6.0546875 5.9765625 C-8 7 -8 7 -10 7 C-10 6.34 -10 5.68 -10 5 C-8.3203125 3.7109375 -8.3203125 3.7109375 -6.125 2.375 C-5.40570313 1.92898437 -4.68640625 1.48296875 -3.9453125 1.0234375 C-2 0 -2 0 0 0 Z " fill="#BB9A62" transform="translate(295,72)"/>
<path d="M0 0 C3 1 3 1 4 3 C4.04022391 5.3329866 4.04320247 7.66706666 4 10 C3.34 10 2.68 10 2 10 C1.855625 8.906875 1.71125 7.81375 1.5625 6.6875 C1.11711896 3.06877013 1.11711896 3.06877013 0 0 Z " fill="#A98754" transform="translate(151,61)"/>
<path d="M0 0 C1.65625 1.546875 1.65625 1.546875 3 3 C1.54077307 2.88590407 0.08259402 2.75834456 -1.375 2.625 C-2.59316406 2.52058594 -2.59316406 2.52058594 -3.8359375 2.4140625 C-6 2 -6 2 -8 0 C-4.65044556 -1.11651815 -3.32740404 -0.99822121 0 0 Z " fill="#A48A5F" transform="translate(53,61)"/>
<path d="M0 0 C0.66 0 1.32 0 2 0 C2 2.31 2 4.62 2 7 C2.66 7.33 3.32 7.66 4 8 C3.01 8.33 2.02 8.66 1 9 C0.34 8.34 -0.32 7.68 -1 7 C-0.34 7 0.32 7 1 7 C1 6.01 1 5.02 1 4 C0.01 4 -0.98 4 -2 4 C-1 1 -1 1 0 0 Z " fill="#B29566" transform="translate(61,113)"/>
<path d="M0 0 C0.99 0.33 1.98 0.66 3 1 C2.625 3.4375 2.625 3.4375 2 6 C1.01 6.495 1.01 6.495 0 7 C0 5.68 0 4.36 0 3 C-0.66 2.67 -1.32 2.34 -2 2 C-1.34 1.34 -0.68 0.68 0 0 Z " fill="#AB7E39" transform="translate(89,105)"/>
<path d="M0 0 C1.65 0.33 3.3 0.66 5 1 C4.67 1.66 4.34 2.32 4 3 C0.04 3 -3.92 3 -8 3 C-8 2.67 -8 2.34 -8 2 C-5.36 2 -2.72 2 0 2 C0 1.34 0 0.68 0 0 Z " fill="#85683E" transform="translate(235,102)"/>
<path d="M0 0 C-2.85306797 2.32472205 -5.54074837 3.7508258 -9 5 C-9.66 4.34 -10.32 3.68 -11 3 C-7.14243493 0.84694043 -4.44870215 -0.39253254 0 0 Z " fill="#B09365" transform="translate(289,91)"/>
<path d="M0 0 C0.66 0 1.32 0 2 0 C1.34 2.31 0.68 4.62 0 7 C-1.32 7 -2.64 7 -4 7 C-4.33 6.01 -4.66 5.02 -5 4 C-3.68 4 -2.36 4 -1 4 C-0.67 2.68 -0.34 1.36 0 0 Z " fill="#BC9B63" transform="translate(84,84)"/>
<path d="M0 0 C0.66 0 1.32 0 2 0 C2 3.3 2 6.6 2 10 C1.34 9.67 0.68 9.34 0 9 C-0.44921875 7.1875 -0.44921875 7.1875 -0.6875 5 C-0.77386719 4.278125 -0.86023438 3.55625 -0.94921875 2.8125 C-0.96597656 2.214375 -0.98273438 1.61625 -1 1 C-0.67 0.67 -0.34 0.34 0 0 Z M0 1 C1 3 1 3 1 3 Z " fill="#8B6431" transform="translate(176,56)"/>
<path d="M0 0 C2.92879371 0.62759865 5.36095629 1.58622659 8 3 C8 3.66 8 4.32 8 5 C4.62537285 4.45276317 2.91765 3.9451 0 2 C0 1.34 0 0.68 0 0 Z " fill="#8D6E42" transform="translate(54,117)"/>
<path d="M0 0 C2.31 0 4.62 0 7 0 C7.33 1.65 7.66 3.3 8 5 C7.01 5 6.02 5 5 5 C5 4.01 5 3.02 5 2 C3.35 1.67 1.7 1.34 0 1 C0 0.67 0 0.34 0 0 Z " fill="#AB8D5D" transform="translate(67,116)"/>
<path d="M0 0 C2.31 0 4.62 0 7 0 C7 0.66 7 1.32 7 2 C4.69 2.66 2.38 3.32 0 4 C0 2.68 0 1.36 0 0 Z " fill="#AD8F62" transform="translate(97,111)"/>
<path d="M0 0 C0.99 0.33 1.98 0.66 3 1 C2.67 1.66 2.34 2.32 2 3 C2.99 3.99 3.98 4.98 5 6 C4.67 6.66 4.34 7.32 4 8 C2 6.6875 2 6.6875 0 5 C0 4.01 0 3.02 0 2 C-0.66 1.67 -1.32 1.34 -2 1 C-1.34 0.67 -0.68 0.34 0 0 Z " fill="#B69761" transform="translate(167,102)"/>
<path d="M0 0 C0.33 0 0.66 0 1 0 C1 2.31 1 4.62 1 7 C0.01 7.495 0.01 7.495 -1 8 C-1.33 7.01 -1.66 6.02 -2 5 C-2.66 4.67 -3.32 4.34 -4 4 C-3 2 -3 2 -1 1 C-0.67 0.67 -0.34 0.34 0 0 Z " fill="#CAB389" transform="translate(146,98)"/>
<path d="M0 0 C-5.625 4 -5.625 4 -9 4 C-9 3.34 -9 2.68 -9 2 C-8.01 2 -7.02 2 -6 2 C-6 1.34 -6 0.68 -6 0 C-3.50907189 -1.24546405 -2.58919267 -0.7767578 0 0 Z " fill="#BC9C69" transform="translate(70,99)"/>
<path d="M0 0 C0.66 0 1.32 0 2 0 C2.125 2.875 2.125 2.875 2 6 C1.34 6.66 0.68 7.32 0 8 C-1.125 2.25 -1.125 2.25 0 0 Z " fill="#A28252" transform="translate(40,67)"/>
<path d="M0 0 C0.66 0 1.32 0 2 0 C2.80967438 2.91482778 3.21845993 4.46113217 2.0625 7.3125 C1.5365625 8.1478125 1.5365625 8.1478125 1 9 C0 8 0 8 -0.09765625 6.15234375 C-0.06510417 4.1015625 -0.03255208 2.05078125 0 0 Z " fill="#7B6D58" transform="translate(239,62)"/>
<path d="M0 0 C2.97 0.495 2.97 0.495 6 1 C5.33333333 3 4.66666667 5 4 7 C3.34 7 2.68 7 2 7 C1.34 4.69 0.68 2.38 0 0 Z " fill="#AF8E5A" transform="translate(157,58)"/>
<path d="M0 0 C0.66 0 1.32 0 2 0 C2 2.64 2 5.28 2 8 C1.67 7.01 1.34 6.02 1 5 C0.34 5 -0.32 5 -1 5 C-0.67 3.35 -0.34 1.7 0 0 Z " fill="#A2712B" transform="translate(60,103)"/>
<path d="M0 0 C0 0.66 0 1.32 0 2 C-2.64 2.33 -5.28 2.66 -8 3 C-5.53387212 -0.1151089 -3.89156016 -0.31553191 0 0 Z " fill="#A7895B" transform="translate(277,95)"/>
<path d="M0 0 C0.66 0.66 1.32 1.32 2 2 C2.804375 2.7425 2.804375 2.7425 3.625 3.5 C5 5 5 5 5 7 C3.125 6.8125 3.125 6.8125 1 6 C-0.25 3.4375 -0.25 3.4375 -1 1 C-0.67 0.67 -0.34 0.34 0 0 Z " fill="#AB8E60" transform="translate(298,52)"/>
<path d="M0 0 C0.33 0 0.66 0 1 0 C1 3.63 1 7.26 1 11 C0.67 11 0.34 11 0 11 C0 7.37 0 3.74 0 0 Z " fill="#7C5F3A" transform="translate(38,104)"/>
<path d="" fill="#7C5F3A" transform="translate(0,0)"/>
<path d="" fill="#7C5F3A" transform="translate(0,0)"/>
<path d="" fill="#CDC18D" transform="translate(0,0)"/>
<path d="" fill="#7C5F3A" transform="translate(0,0)"/>
<path d="" fill="#7C5F3A" transform="translate(0,0)"/>
<path d="" fill="#7C5F3A" transform="translate(0,0)"/>
</svg>
